<svg height="512" viewBox="0 0 64 64" width="512" xmlns="http://www.w3.org/2000/svg"><g id="App_development" data-name="App development"><path d="m43 55v2a4 4 0 0 0 4 4h10a4 4 0 0 0 4-4v-2z" fill="#9bc9ff"/><path d="m57 31h-10a4 4 0 0 0 -4 4v2h18v-2a4 4 0 0 0 -4-4z" fill="#9bc9ff"/><path d="m7 61h28a4 4 0 0 0 4-4v-2h-14v1a2 2 0 0 1 -2 2h-4a2 2 0 0 1 -2-2v-1h-14v2a4 4 0 0 0 4 4z" fill="#9bc9ff"/><path d="m25 55h12v-22a2 2 0 0 0 -2-2h-28a2 2 0 0 0 -2 2v22zm-16-20h24v16h-24z" fill="#9bc9ff"/><path d="m39.07 10.76-2.83-2.83-2.24 2.24v-3.17h-4v3.17l-2.24-2.24-2.83 2.83 2.24 2.24h-3.17v4h3.17l-2.24 2.24 2.83 2.83 2.24-2.24v3.17h4v-3.17l2.24 2.24 2.83-2.83-2.24-2.24h3.17v-4h-3.17zm-7.07 6.24a2 2 0 1 1 2-2 2.006 2.006 0 0 1 -2 2z" fill="#9bc9ff"/><g fill="#1e81ce"><path d="m57 30h-4v-13a3 3 0 0 0 -3-3h-5.051a12.987 12.987 0 0 0 -25.9.01c-.017 0-.032-.01-.05-.01h-5.999a3 3 0 0 0 -3 3v13h-3a3 3 0 0 0 -3 3v21h-1a1 1 0 0 0 -1 1v2a5.006 5.006 0 0 0 5 5h28a5.006 5.006 0 0 0 5-5v-2a1 1 0 0 0 -1-1h-1v-21a3 3 0 0 0 -3-3h-23v-13a1 1 0 0 1 1-1h6c.018 0 .033-.009.05-.01a12.987 12.987 0 0 0 25.9.01h5.05a1 1 0 0 1 1 1v13h-4a5.006 5.006 0 0 0 -5 5v22a5.006 5.006 0 0 0 5 5h10a5.006 5.006 0 0 0 5-5v-22a5.006 5.006 0 0 0 -5-5zm-19 27a3 3 0 0 1 -3 3h-28a3 3 0 0 1 -3-3v-1h12a3 3 0 0 0 3 3h4a3 3 0 0 0 3-3h12zm-20-1h6a1 1 0 0 1 -1 1h-4a1 1 0 0 1 -1-1zm17-24a1 1 0 0 1 1 1v21h-30v-21a1 1 0 0 1 1-1zm-3-6a11 11 0 1 1 11-11 11.013 11.013 0 0 1 -11 11zm12 12h16v16h-16zm3-6h10a3 3 0 0 1 3 3v1h-16v-1a3 3 0 0 1 3-3zm10 28h-10a3 3 0 0 1 -3-3v-1h16v1a3 3 0 0 1 -3 3z"/><path d="m53 57h-2a1 1 0 0 0 0 2h2a1 1 0 0 0 0-2z"/><path d="m9 52h24a1 1 0 0 0 1-1v-16a1 1 0 0 0 -1-1h-24a1 1 0 0 0 -1 1v16a1 1 0 0 0 1 1zm1-16h22v14h-22z"/><path d="m51 35h2a1 1 0 0 0 0-2h-2a1 1 0 0 0 0 2z"/><path d="m35.533 7.223-.533.533v-.756a1 1 0 0 0 -1-1h-4a1 1 0 0 0 -1 1v.756l-.533-.533a1 1 0 0 0 -1.414 0l-2.83 2.83a1 1 0 0 0 0 1.414l.533.533h-.756a1 1 0 0 0 -1 1v4a1 1 0 0 0 1 1h.756l-.533.533a1 1 0 0 0 0 1.414l2.83 2.83a1 1 0 0 0 1.414 0l.533-.533v.756a1 1 0 0 0 1 1h4a1 1 0 0 0 1-1v-.756l.533.533a1 1 0 0 0 1.414 0l2.83-2.83a1 1 0 0 0 0-1.414l-.533-.533h.756a1 1 0 0 0 1-1v-4a1 1 0 0 0 -1-1h-.756l.533-.533a1 1 0 0 0 0-1.414l-2.83-2.83a1 1 0 0 0 -1.414 0zm.373 6.16a1 1 0 0 0 .924.617h2.17v2h-2.17a1 1 0 0 0 -.707 1.707l1.533 1.533-1.416 1.416-1.533-1.533a1 1 0 0 0 -1.707.707v2.17h-2v-2.17a1 1 0 0 0 -1.707-.707l-1.533 1.533-1.416-1.416 1.533-1.533a1 1 0 0 0 -.707-1.707h-2.17v-2h2.17a1 1 0 0 0 .707-1.707l-1.533-1.533 1.416-1.416 1.533 1.533a1 1 0 0 0 1.707-.707v-2.17h2v2.17a1 1 0 0 0 1.707.707l1.533-1.533 1.416 1.416-1.533 1.533a1 1 0 0 0 -.217 1.09z"/><path d="m32 12a3 3 0 1 0 3 3 3 3 0 0 0 -3-3zm0 4a1 1 0 1 1 1-1 1 1 0 0 1 -1 1z"/><path d="m48 40h-1a1 1 0 0 0 0 2h1a1 1 0 0 0 0-2z"/><path d="m51 42h6a1 1 0 0 0 0-2h-6a1 1 0 0 0 0 2z"/><path d="m48 44h-1a1 1 0 0 0 0 2h1a1 1 0 0 0 0-2z"/><path d="m57 44h-6a1 1 0 0 0 0 2h6a1 1 0 0 0 0-2z"/><path d="m48 48h-1a1 1 0 0 0 0 2h1a1 1 0 0 0 0-2z"/><path d="m57 48h-6a1 1 0 0 0 0 2h6a1 1 0 0 0 0-2z"/><path d="m16 38h-1a1 1 0 0 0 0 2h1a1 1 0 0 0 0-2z"/><path d="m26 38h-7a1 1 0 0 0 0 2h7a1 1 0 0 0 0-2z"/><path d="m16 42h-1a1 1 0 0 0 0 2h1a1 1 0 0 0 0-2z"/><path d="m26 42h-7a1 1 0 0 0 0 2h7a1 1 0 0 0 0-2z"/><path d="m16 46h-1a1 1 0 0 0 0 2h1a1 1 0 0 0 0-2z"/><path d="m26 46h-7a1 1 0 0 0 0 2h7a1 1 0 0 0 0-2z"/></g></g></svg>