<svg height="512" viewBox="0 0 64 64" width="512" xmlns="http://www.w3.org/2000/svg"><g id="Blueprint-Cogwheel-Plan-Architecture-Construction"><path d="m59.83 50.17a4 4 0 0 1 -2.83 6.83h-2v-8h2a4.025 4.025 0 0 1 2.83 1.17z" fill="#bddbff"/><path d="m54 37h-29v8h6 4 4 4 4 4 3 1 6v-8z" fill="#bddbff"/><path d="m54 11h-6a2.006 2.006 0 0 1 -2-2v-6z" fill="#bddbff"/><path d="m33 53h19v4h-19z" fill="#bddbff"/><path d="m33 49h19v4h-19z" fill="#bddbff"/><path d="m45 18v4l-3.32.47a9.8 9.8 0 0 1 -1.09 2.62l2.02 2.69-2.83 2.83-2.69-2.02a9.8 9.8 0 0 1 -2.62 1.09l-.47 3.32h-4l-.47-3.32a9.8 9.8 0 0 1 -2.62-1.09l-2.69 2.02-2.83-2.83 2.02-2.69a9.8 9.8 0 0 1 -1.09-2.62l-3.32-.47v-4l3.32-.47a9.8 9.8 0 0 1 1.09-2.62l-2.02-2.69 2.83-2.83 2.69 2.02a9.8 9.8 0 0 1 2.62-1.09l.47-3.32h4l.47 3.32a9.8 9.8 0 0 1 2.62 1.09l2.69-2.02 2.83 2.83-2.02 2.69a9.8 9.8 0 0 1 1.09 2.62zm-8 2a5 5 0 1 0 -5 5 5 5 0 0 0 5-5z" fill="#bddbff"/><path d="m29 51v4h-2a2 2 0 0 1 0-4z" fill="#bddbff"/><path d="m24 56-14-14-7-7v26h26zm-14 1h-3v-12.34l3 3 9.34 9.34z" fill="#bddbff"/><g fill="#3d9ae2"><path d="m50 60h-18v2h18a4.994 4.994 0 0 0 3.307-1.25l-1.323-1.5a3 3 0 0 1 -1.984.75z"/><path d="m54.71 10.29-8-8a1.033 1.033 0 0 0 -.71-.29h-32a5 5 0 0 0 -5 5v30h2v-30a3.009 3.009 0 0 1 3-3h31v5a3.009 3.009 0 0 0 3 3h5v22h2v-23a1.033 1.033 0 0 0 -.29-.71zm-6.71-.29a1 1 0 0 1 -1-1v-3.59l4.59 4.59z"/><path d="m57 48h-25a.967.967 0 0 0 -.55.17l-2.75 1.83h-1.7a3 3 0 0 0 0 6h1.7l2.75 1.83a.967.967 0 0 0 .55.17h25a5 5 0 0 0 0-10zm-29 6h-1a1 1 0 0 1 0-2h1zm4 1.8-2-1.34v-2.92l2-1.34zm19 .2h-17v-2h17zm0-4h-17v-2h17zm3 4h-1v-6h1zm3 0h-1v-6h1a3 3 0 0 1 0 6z"/><path d="m61 36h-36a1 1 0 0 0 -1 1v8a1 1 0 0 0 1 1h36a1 1 0 0 0 1-1v-8a1 1 0 0 0 -1-1zm-1 8h-4v-4h-2v4h-2v-2h-2v2h-2v-2h-2v2h-2v-4h-2v4h-2v-2h-2v2h-2v-2h-2v2h-2v-4h-2v4h-4v-6h34z"/><path d="m3.707 34.293a1 1 0 0 0 -1.707.707v26a1 1 0 0 0 1 1h26a1 1 0 0 0 .707-1.707zm.293 25.707v-22.586l22.586 22.586z"/><path d="m7 58h12.343a1 1 0 0 0 .707-1.707l-12.343-12.344a1 1 0 0 0 -1.707.707v12.344a1 1 0 0 0 1 1zm1-10.93 8.929 8.93h-8.929z"/><path d="m15 34h6v2h-6z"/><path d="m15 38h6v2h-6z"/><path d="m15 42h6v2h-6z"/><path d="m45.142 22.99a1 1 0 0 0 .858-.99v-4a1 1 0 0 0 -.858-.99l-2.682-.383a10.855 10.855 0 0 0 -.678-1.639l1.624-2.167a1 1 0 0 0 -.093-1.306l-2.828-2.828a1 1 0 0 0 -1.307-.093l-2.166 1.625a10.86 10.86 0 0 0 -1.639-.679l-.383-2.682a1 1 0 0 0 -.99-.858h-4a1 1 0 0 0 -.99.858l-.383 2.682a10.86 10.86 0 0 0 -1.639.679l-2.166-1.625a1 1 0 0 0 -1.307.093l-2.828 2.828a1 1 0 0 0 -.093 1.306l1.624 2.167a10.855 10.855 0 0 0 -.678 1.639l-2.682.383a1 1 0 0 0 -.858.99v4a1 1 0 0 0 .858.99l2.682.383a10.855 10.855 0 0 0 .678 1.639l-1.624 2.167a1 1 0 0 0 .093 1.306l2.828 2.828a1 1 0 0 0 1.307.093l2.166-1.625a10.86 10.86 0 0 0 1.639.679l.383 2.682a1 1 0 0 0 .99.858h4a1 1 0 0 0 .99-.858l.383-2.682a10.86 10.86 0 0 0 1.639-.679l2.166 1.625a1 1 0 0 0 1.307-.093l2.828-2.828a1 1 0 0 0 .093-1.306l-1.624-2.167a10.855 10.855 0 0 0 .678-1.639zm-3.605-1.506a1 1 0 0 0 -.828.744 8.859 8.859 0 0 1 -.975 2.356 1 1 0 0 0 .06 1.11l1.492 1.991-1.6 1.6-1.986-1.491a1 1 0 0 0 -1.111-.061 8.923 8.923 0 0 1 -2.357.977 1 1 0 0 0 -.742.827l-.357 2.463h-2.266l-.352-2.463a1 1 0 0 0 -.742-.827 8.923 8.923 0 0 1 -2.357-.977 1 1 0 0 0 -1.111.061l-1.99 1.492-1.6-1.6 1.492-1.991a1 1 0 0 0 .06-1.11 8.859 8.859 0 0 1 -.975-2.356 1 1 0 0 0 -.828-.744l-2.464-.352v-2.266l2.463-.351a1 1 0 0 0 .828-.744 8.859 8.859 0 0 1 .975-2.356 1 1 0 0 0 -.06-1.11l-1.492-1.991 1.6-1.6 1.99 1.492a1 1 0 0 0 1.111.061 8.923 8.923 0 0 1 2.357-.977 1 1 0 0 0 .742-.827l.353-2.464h2.266l.352 2.463a1 1 0 0 0 .742.827 8.923 8.923 0 0 1 2.357.977 1 1 0 0 0 1.111-.061l1.99-1.492 1.6 1.6-1.492 1.991a1 1 0 0 0 -.06 1.11 8.859 8.859 0 0 1 .975 2.356 1 1 0 0 0 .828.744l2.464.352v2.266z"/><path d="m32 14a6 6 0 1 0 6 6 6.006 6.006 0 0 0 -6-6zm0 10a4 4 0 1 1 4-4 4 4 0 0 1 -4 4z"/></g></g></svg>