<svg height="512" viewBox="0 0 128 128" width="512" xmlns="http://www.w3.org/2000/svg"><rect fill="#e6e7e8" height="112" rx="8.036" width="63.275" x="34.362" y="10"/><rect fill="#6dc9f7" height="110" rx="7.035" width="61.275" x="31.362" y="7"/><path d="m31.362 17.429h61.275v84.657h-61.275z" fill="#d4fbff"/><path d="m31.362 17.429h61.275v3h-61.275z" fill="#fff"/><rect fill="#0089ef" height="2.269" rx="1.026" width="19.128" x="52.436" y="11.186"/><path d="m76.1 11.075a1.246 1.246 0 1 0 1.245 1.246 1.245 1.245 0 0 0 -1.245-1.246z" fill="#0089ef"/><rect fill="#0089ef" height="5.512" rx="2.492" width="16.534" x="53.733" y="106.153"/><path d="m55.12 45.854v.039a2.3 2.3 0 0 1 -3.21 2.107l-12.944-5.61a3.3 3.3 0 0 1 -1.986-3.025v-.035a3.294 3.294 0 0 1 1.986-3.024l12.944-5.606a2.3 2.3 0 0 1 3.21 2.1v.063a2.3 2.3 0 0 1 -1.471 2.143l-11.169 4.3 11.185 4.4a2.3 2.3 0 0 1 1.455 2.148z" fill="#fa759e"/><path d="m65.348 25.515a2.135 2.135 0 0 0 -2.577 1.573l-5.692 23.519a2.134 2.134 0 1 0 4.149 1l5.692-23.516a2.136 2.136 0 0 0 -1.572-2.576z" fill="#fa759e"/><path d="m85.039 42.345-12.946 5.637a2.3 2.3 0 0 1 -3.214-2.106v-.032a2.3 2.3 0 0 1 1.458-2.138l11.219-4.406-11.209-4.336a2.3 2.3 0 0 1 -1.468-2.142 2.3 2.3 0 0 1 3.207-2.109l12.943 5.587a3.3 3.3 0 0 1 1.99 3.027 3.3 3.3 0 0 1 -1.98 3.018z" fill="#fa759e"/><path d="m67.82 60h-6.808a1 1 0 0 1 0-2h6.808a1 1 0 0 1 0 2z" fill="#fa759e"/><path d="m55.012 60h-16.833a1 1 0 0 1 0-2h16.833a1 1 0 0 1 0 2z" fill="#fa759e"/><g fill="#3a2c60"><path d="m31.362 54.414a1 1 0 0 0 1-1v-8.081a1 1 0 0 0 -2 0v8.081a1 1 0 0 0 1 1z"/><path d="m85.6 6h-47.2a8.045 8.045 0 0 0 -8.036 8.036v26.464a1 1 0 0 0 2 0v-22.071h59.274v82.657h-59.276v-42.836a1 1 0 0 0 -2 0v51.714a8.045 8.045 0 0 0 8.038 8.036h47.2a8.046 8.046 0 0 0 8.036-8.036v-95.928a8.046 8.046 0 0 0 -8.036-8.036zm-53.238 10.429v-2.393a6.043 6.043 0 0 1 6.038-6.036h47.2a6.043 6.043 0 0 1 6.036 6.036v2.393zm53.238 99.571h-47.2a6.043 6.043 0 0 1 -6.036-6.036v-6.878h59.274v6.878a6.043 6.043 0 0 1 -6.038 6.036z"/><path d="m56.12 32.8a3.3 3.3 0 0 0 -4.608-3.025l-12.944 5.61a4.324 4.324 0 0 0 0 7.92l12.944 5.609a3.3 3.3 0 0 0 4.608-3.025v-.039a3.277 3.277 0 0 0 -2.09-3.068l-8.8-3.463 8.773-3.38a3.336 3.336 0 0 0 2.117-3.139zm-2.831 1.273-11.168 4.3a1 1 0 0 0 -.007 1.864l11.184 4.4a1.288 1.288 0 0 1 .822 1.207v.039a1.3 1.3 0 0 1 -1.813 1.19l-12.944-5.599a2.325 2.325 0 0 1 0-4.25l12.944-5.61a1.313 1.313 0 0 1 .52-.11 1.287 1.287 0 0 1 .708.216 1.348 1.348 0 0 1 -.246 2.357z"/><path d="m65.585 24.543a3.135 3.135 0 0 0 -3.785 2.31l-5.693 23.518a3.138 3.138 0 0 0 2.311 3.785 3.172 3.172 0 0 0 .737.087 3.124 3.124 0 0 0 3.045-2.4l5.692-23.519a3.136 3.136 0 0 0 -2.307-3.784zm.363 3.313-5.691 23.519a1.151 1.151 0 0 1 -1.37.836 1.136 1.136 0 0 1 -.836-1.369l5.692-23.519a1.13 1.13 0 0 1 .514-.7 1.119 1.119 0 0 1 .586-.166 1.1 1.1 0 0 1 .267.033 1.135 1.135 0 0 1 .836 1.369z"/><path d="m88.02 39.323a4.293 4.293 0 0 0 -2.595-3.945l-12.943-5.578a3.3 3.3 0 1 0 -2.5 6.1l8.818 3.408-8.83 3.467a3.312 3.312 0 1 0 2.523 6.125l12.946-5.637a4.3 4.3 0 0 0 2.581-3.94zm-3.38 2.1-12.946 5.642a1.272 1.272 0 0 1 -1.229-.1 1.323 1.323 0 0 1 .237-2.324l11.219-4.405a1 1 0 0 0 -.005-1.863l-11.207-4.341a1.308 1.308 0 0 1 -.83-1.21 1.3 1.3 0 0 1 1.293-1.3 1.3 1.3 0 0 1 .518.109l12.942 5.584a2.3 2.3 0 0 1 .008 4.213z"/><path d="m85.82 65h-11.309a1 1 0 0 0 0 2h11.309a1 1 0 0 0 0-2z"/><path d="m45.179 67h24.166a1 1 0 0 0 0-2h-24.166a1 1 0 0 0 0 2z"/><path d="m85.82 72h-22.22a1 1 0 1 0 0 2h22.22a1 1 0 0 0 0-2z"/><path d="m45.179 74h12.333a1 1 0 0 0 0-2h-12.333a1 1 0 0 0 0 2z"/><path d="m85.82 79h-40.641a1 1 0 0 0 0 2h40.641a1 1 0 0 0 0-2z"/><path d="m85.82 86h-7.875a1 1 0 0 0 0 2h7.875a1 1 0 0 0 0-2z"/><path d="m45.179 86a1 1 0 0 0 0 2h27.75a1 1 0 0 0 0-2z"/></g><path d="m67.82 95h-10.308a1 1 0 0 1 0-2h10.308a1 1 0 0 1 0 2z" fill="#fa759e"/><path d="m53.512 95h-15.333a1 1 0 0 1 0-2h15.333a1 1 0 0 1 0 2z" fill="#fa759e"/></svg>