<svg height="512" viewBox="0 0 128 128" width="512" xmlns="http://www.w3.org/2000/svg"><path d="m108.778 42.5a1 1 0 0 0 -1.659-.4l-5.486 5.486v-29.55a8.044 8.044 0 0 0 -8.033-8.036h-47.2a8.044 8.044 0 0 0 -8.035 8.036v18.085a2.2 2.2 0 0 0 -1.549.646l-2.745 2.745a2.211 2.211 0 0 0 0 3.131l.489.489-.064.063a4.408 4.408 0 0 0 -1.272 3.373l-3.746 3.746a3.2 3.2 0 0 0 -3.722.572l-2.24 2.24a3.208 3.208 0 0 0 0 4.533l8 7.995a3.206 3.206 0 0 0 4.532 0l2.241-2.24c.031-.031.051-.067.081-.1v50.649a8.044 8.044 0 0 0 8.024 8.037h47.206a8.044 8.044 0 0 0 8.035-8.036v-55.189a13.4 13.4 0 0 0 7.143-16.275z" fill="#e6e7e8"/><rect fill="#6dc9f7" height="110" rx="7.035" width="61.275" x="35.359" y="7"/><path d="m35.359 17.429h61.275v84.657h-61.275z" fill="#d4fbff"/><path d="m35.359 17.429h61.275v3h-61.275z" fill="#fff"/><g fill="#0089ef"><rect height="2.269" rx="1.026" width="19.128" x="56.432" y="11.186"/><path d="m80.1 11.075a1.246 1.246 0 1 0 1.245 1.246 1.245 1.245 0 0 0 -1.245-1.246z"/><rect height="5.511" rx="2.492" width="16.534" x="57.729" y="106.153"/><path d="m100.8 51.366a12.389 12.389 0 0 0 3.026-12.566l-8.072 8.072-8-8 8.072-8.072a12.389 12.389 0 0 0 -15.236 16.567l-36.252 36.252a4.72 4.72 0 0 0 0 6.675 4.72 4.72 0 0 0 6.675 0l36.252-36.252a12.4 12.4 0 0 0 13.535-2.676z"/><path d="m37.728 50.76-3.888-1.391a3.384 3.384 0 0 1 -2.046-2.046l-1.394-3.888a3.475 3.475 0 0 1 -.135-.5l-4.675 4.674 7.964 7.964 4.678-4.673a3.51 3.51 0 0 1 -.504-.14z"/><path d="m68.27 33.956-10.199-4.156a19.382 19.382 0 0 0 -20.695 3.943 3.377 3.377 0 0 1 3.356-.641l3.888 1.398a3.382 3.382 0 0 1 2.046 2.046l1.391 3.888a3.4 3.4 0 0 1 .149.607 18.386 18.386 0 0 1 15.281-4.711l3.963.6a1.554 1.554 0 0 0 .82-2.975z"/><path d="m37.049 34.05-.001.001-1.726 1.727z"/></g><path d="m87.4 82.487-23.8-23.795a2.229 2.229 0 0 0 -3.15 0l-4.46 4.463a2.227 2.227 0 0 0 0 3.15l23.795 23.795a5.383 5.383 0 1 0 7.615-7.613z" fill="#fa759e"/><path d="m51.111 49.351a26.171 26.171 0 0 1 -2.9-3.448l-1.193-1.694-5.512 5.512 1.694 1.192a26.187 26.187 0 0 1 3.449 2.9l9.341 9.341 4.462-4.463z" fill="#ffd7e5"/><path d="m35.234 33.474a1.216 1.216 0 0 0 -1.718 0l-2.745 2.745a1.214 1.214 0 0 0 0 1.717l1.2 1.2 4.462-4.462z" fill="#6dc9f7"/><path d="m37.2 33.9-6 6a3.385 3.385 0 0 0 -.794 3.532l1.391 3.888a3.384 3.384 0 0 0 2.046 2.046l3.888 1.391a3.386 3.386 0 0 0 3.533-.794l6-6a3.382 3.382 0 0 0 .793-3.532l-1.391-3.888a3.382 3.382 0 0 0 -2.046-2.043l-3.888-1.391a3.382 3.382 0 0 0 -3.532.791z" fill="#6dc9f7"/><rect fill="#6dc9f7" height="15.717" rx="2.205" transform="matrix(.707 -.707 .707 .707 -30.498 34.912)" width="7.578" x="23.104" y="46.411"/><path d="m35.359 90.414a1 1 0 0 0 1-1v-8.081a1 1 0 0 0 -2 0v8.081a1 1 0 0 0 1 1z" fill="#3a2c60"/><path d="m104.778 38.5a1 1 0 0 0 -1.659-.4l-5.486 5.486v-29.551a8.043 8.043 0 0 0 -8.033-8.035h-47.2a8.043 8.043 0 0 0 -8.035 8.035v18.086a2.2 2.2 0 0 0 -1.55.646l-2.745 2.745a2.217 2.217 0 0 0 0 3.131l.489.489-.063.063a4.4 4.4 0 0 0 -1.273 3.373l-3.754 3.754a3.288 3.288 0 0 0 -3.714.564l-2.241 2.24a3.211 3.211 0 0 0 0 4.533l8 8a3.208 3.208 0 0 0 4.532 0l2.24-2.24c.031-.031.052-.067.082-.1v17.181a1 1 0 0 0 2 0v-22.317l2.248-2.249c.084.005.168.021.252.021a4.4 4.4 0 0 0 2.717-.962l1.049.738a25.34 25.34 0 0 1 3.317 2.789l8.749 8.757a3.185 3.185 0 0 0 .585 3.735l2.124 2.124-13.778 13.776a5.72 5.72 0 0 0 8.089 8.088l13.78-13.775 13.578 13.582a6.383 6.383 0 0 0 9.022-9.027l-13.578-13.58 12.989-12.991a13.365 13.365 0 0 0 8.122.3v45.581h-59.274v-6.84a1 1 0 0 0 -2 0v15.714a8.044 8.044 0 0 0 8.035 8.036h47.206a8.044 8.044 0 0 0 8.035-8.036v-55.189a13.4 13.4 0 0 0 7.143-16.275zm-15.178 77.5h-47.2a6.042 6.042 0 0 1 -6.035-6.036v-6.878h59.268v6.878a6.042 6.042 0 0 1 -6.033 6.036zm-10.177-68.879-12.989 12.989-2.125-2.125a3.222 3.222 0 0 0 -3.733-.583l-8.758-8.757a25.4 25.4 0 0 1 -2.79-3.318l-.728-1.036a4.407 4.407 0 0 0 .945-2.85 17.474 17.474 0 0 1 14.092-4.125l3.964.6a2.554 2.554 0 0 0 1.347-4.89l-10.2-4.153a20.34 20.34 0 0 0 -21.778 4.166c-.058.053-.122.1-.177.153l-.064.064-.07-.071v-14.756h59.274v11.283a13.38 13.38 0 0 0 -16.21 17.409zm-30.714-7.836-1.1-3.079a4.369 4.369 0 0 0 -2.651-2.65l-3.888-1.391c-.01 0-.021-.006-.031-.009a18.34 18.34 0 0 1 16.655-1.426l10.2 4.152a.554.554 0 0 1 -.292 1.06l-3.964-.6a19.462 19.462 0 0 0 -14.929 3.943zm40.462-.408 6.462-6.462v12.925zm-46.777-30.877h47.206a6.042 6.042 0 0 1 6.035 6.035v2.394h-59.276v-2.394a6.042 6.042 0 0 1 6.035-6.035zm-10.916 28.926 2.745-2.745a.214.214 0 0 1 .152-.063.212.212 0 0 1 .151.063l.489.489-3.048 3.048-.489-.489a.215.215 0 0 1 0-.303zm-1.652 7.862 1.027 2.872a4.369 4.369 0 0 0 2.647 2.65l2.871 1.028-2.821 2.821-6.549-6.55zm3.037 13.212-2.24 2.24a1.206 1.206 0 0 1 -1.7 0l-8-8a1.207 1.207 0 0 1 0-1.7l2.24-2.24a1.2 1.2 0 0 1 1.7 0l8 8a1.2 1.2 0 0 1 0 1.7zm5.2-8.182-3.888-1.391a2.375 2.375 0 0 1 -1.441-1.441l-1.389-3.886a2.4 2.4 0 0 1 .559-2.49l6-6a2.4 2.4 0 0 1 2.488-.559l3.888 1.391a2.379 2.379 0 0 1 1.442 1.442l1.391 3.887a2.4 2.4 0 0 1 -.559 2.489l-6 6a2.4 2.4 0 0 1 -2.489.558zm5.711.277-.722-.508 3.831-3.831.508.723a27.349 27.349 0 0 0 3.011 3.58l8.634 8.633-3.046 3.049-8.634-8.635a27.411 27.411 0 0 0 -3.58-3.006zm6.53 39.492a3.72 3.72 0 1 1 -5.261-5.261l13.778-13.776 5.261 5.261zm36.384-.194a4.387 4.387 0 0 1 -6.2 0l-23.788-23.793a1.228 1.228 0 0 1 0-1.735l4.459-4.465a1.231 1.231 0 0 1 1.736 0l23.795 23.8a4.388 4.388 0 0 1 0 6.193zm.959-36.275a1 1 0 0 0 -1.091.216l-13.45 13.45-5.26-5.26 13.454-13.45a1 1 0 0 0 .217-1.091 11.38 11.38 0 0 1 12.346-15.626l-6.813 6.813a1 1 0 0 0 0 1.414l8 8a1.029 1.029 0 0 0 1.414 0l6.814-6.813a11.389 11.389 0 0 1 -15.629 12.347z" fill="#3a2c60"/></svg>