<svg height="512" viewBox="0 0 128 128" width="512" xmlns="http://www.w3.org/2000/svg"><path d="m103.81 96.5h-102.81v-92.547a2.953 2.953 0 0 1 2.953-2.953h96.9a2.953 2.953 0 0 1 2.953 2.953z" fill="#fffffa"/><path d="m62.173 92.479a7.921 7.921 0 0 0 -11.2 0 2.791 2.791 0 0 0 0 3.947l.075.075h15.146z" fill="#f0f0e6"/><path d="m103.81 80.675a5.006 5.006 0 0 0 -.724-.073 5.058 5.058 0 0 0 -5.058 5.058v-4.088a5.058 5.058 0 0 0 -5.058-5.058 5.058 5.058 0 0 0 -5.058 5.058v-2.55a5.058 5.058 0 0 0 -10.117 0v-18.107a5.058 5.058 0 0 0 -5.058-5.058 5.058 5.058 0 0 0 -5.058 5.058v35.585h36.131z" fill="#f0f0e6"/><path d="m60.386 57.51v38.683c0 .1-.025.2-.031.306h3.031v-35.989z" fill="#f0f0e6"/><path d="m95.864 37.658a10 10 0 0 0 -8.121 4.164l-4.124 5.739v7.174l7.124-9.913a10 10 0 0 1 8.121-4.164h4.946v-3z" fill="#f0f0e6"/><path d="m103.81 17.33h-102.81v-13.377a2.953 2.953 0 0 1 2.953-2.953h96.9a2.953 2.953 0 0 1 2.953 2.953z" fill="#aad2ff"/><path d="m2.929 5.882a2.953 2.953 0 0 1 2.953-2.953h96.9a3.029 3.029 0 0 1 .893.148 2.964 2.964 0 0 0 -2.818-2.077h-96.904a2.953 2.953 0 0 0 -2.953 2.953v13.377h1.929z" fill="#bee6ff"/><path d="m1 17.33h102.81v3.747h-102.81z" fill="#f0f0e6"/><circle cx="8.657" cy="10.843" fill="#96bef0" r="2"/><circle cx="16.657" cy="10.843" fill="#96bef0" r="2"/><circle cx="24.657" cy="10.843" fill="#96bef0" r="2"/><circle cx="8.657" cy="10.052" fill="#e678a0" r="2"/><circle cx="16.657" cy="10.052" fill="#f0dc78" r="2"/><circle cx="24.657" cy="10.052" fill="#8d7bd4" r="2"/><rect fill="#e678a0" height="20.905" rx="5" width="43.82" x="48.666" y="45.479"/><path d="m77.794 66.384v-5.469a5.058 5.058 0 0 0 -5.058-5.058 5.058 5.058 0 0 0 -5.058 5.058v5.469z" fill="#d2648c"/><path d="m60.386 66.384h3v-5.874l-3-3z" fill="#d2648c"/><path d="m87.486 45.479h-3.867v9.257l6.214-8.646a4.944 4.944 0 0 0 -2.347-.611z" fill="#d2648c"/><path d="m19.005 101.193h36.381a5 5 0 0 0 5-5v-38.683l-7.124 9.913a10 10 0 0 1 -8.12 4.164h-26.137a5 5 0 0 0 -5 5v19.606a5 5 0 0 0 5 5z" fill="#f0dc78"/><path d="m100.852 78.369a5.058 5.058 0 0 0 -5.058 5.058v-4.089a5.058 5.058 0 0 0 -5.058-5.058 5.058 5.058 0 0 0 -5.058 5.058v-2.55a5.058 5.058 0 1 0 -10.117 0v-18.107a5.058 5.058 0 0 0 -5.061-5.058 5.058 5.058 0 0 0 -5.058 5.058v37.069l-5.505-5.505a7.921 7.921 0 0 0 -11.2 0 2.791 2.791 0 0 0 0 3.947l21.323 21.322a20.347 20.347 0 0 0 1.456 1.585v-.129h28.323v.119a20.163 20.163 0 0 0 6.072-14.44v-19.222a5.058 5.058 0 0 0 -5.059-5.058z" fill="#ffc8d2"/><path d="m102.472 78.658a5.006 5.006 0 0 1 .289 1.62v19.222a20.163 20.163 0 0 1 -6.072 14.44v-.119h-28.322l1.693 1.693a20.347 20.347 0 0 0 1.456 1.585v-.129h28.323v.119a20.163 20.163 0 0 0 6.072-14.44v-19.222a5.042 5.042 0 0 0 -3.439-4.769z" fill="#ffb4be"/><path d="m71.517 116.97h28.322v10.03h-28.322z" fill="#e678a0"/><path d="m71.517 121.985h28.322v5.015h-28.322z" fill="#d2648c"/><path d="m122 8.052h-36.381a5 5 0 0 0 -5 5v38.683l7.124-9.913a10 10 0 0 1 8.12-4.164h26.137a5 5 0 0 0 5-5v-19.606a5 5 0 0 0 -5-5z" fill="#f0dc78"/><path d="m42.271 77.533a.727.727 0 0 1 .536.307.971.971 0 0 1 .192.575 17.487 17.487 0 0 1 -2.414 8.966 17.864 17.864 0 0 1 -6.4 6.4 17.488 17.488 0 0 1 -8.966 2.414.971.971 0 0 1 -.575-.195.727.727 0 0 1 -.307-.536l-.92-3.985a.865.865 0 0 1 .077-.613.825.825 0 0 1 .46-.421l4.292-1.839a.973.973 0 0 1 .575-.057.77.77 0 0 1 .5.326l1.878 2.3a13.469 13.469 0 0 0 4-2.8 14.077 14.077 0 0 0 2.778-3.985l-2.3-1.916a.917.917 0 0 1 -.304-.474.955.955 0 0 1 .038-.594l1.839-4.292a.845.845 0 0 1 .421-.421.865.865 0 0 1 .613-.077z" fill="#e678a0"/><path d="m94.007 18.069v10.3a1.83 1.83 0 0 0 1.838 1.838h15.93a1.83 1.83 0 0 0 1.838-1.838v-10.3z" fill="#a99be0"/><path d="m103.81 25.306a2.444 2.444 0 0 1 -1.225-.46 9.125 9.125 0 0 1 -1.185-.846l-.383-.268q-4.71-3.446-6.395-4.748l-.268-.191a.873.873 0 0 1 -.345-.728v-.728a1.83 1.83 0 0 1 1.836-1.837h15.93a1.83 1.83 0 0 1 1.838 1.838v.728a.873.873 0 0 1 -.345.728l-.191.153q-1.647 1.3-6.472 4.787l-.383.268a9.125 9.125 0 0 1 -1.187.842 2.444 2.444 0 0 1 -1.225.462z" fill="#b4aaf0"/><g fill="#785ae6"><path d="m14.036 97.5h-13.036a1 1 0 0 1 -1-1v-92.547a3.958 3.958 0 0 1 3.953-3.953h96.9a3.958 3.958 0 0 1 3.953 3.953v4.1a1 1 0 0 1 -1 1h-18.187a4 4 0 0 0 -4 4v35.577l5.312-7.392a11.028 11.028 0 0 1 8.934-4.581h7.945a1 1 0 0 1 1 1v41.682a1 1 0 0 1 -1.587.81 4.02 4.02 0 0 0 -2.37-.78 4.063 4.063 0 0 0 -4.059 4.059 1 1 0 1 1 -2 0v-4.09a4.058 4.058 0 1 0 -8.116 0 1 1 0 0 1 -2 0v-2.549a4.059 4.059 0 0 0 -8.117 0 1 1 0 0 1 -2 0v-18.108a4.058 4.058 0 1 0 -8.116 0v37.069a1 1 0 0 1 -1.707.707l-5.059-5.057a1 1 0 0 1 -.293-.707v-30.078l-5.312 7.392a11.024 11.024 0 0 1 -8.932 4.581h-18.485a1 1 0 1 1 0-2h18.485a9.019 9.019 0 0 0 7.308-3.748l7.125-9.913a1 1 0 0 1 1.812.583v32.768l3.058 3.058v-34.655a6.058 6.058 0 1 1 12.116 0v13.613a6.055 6.055 0 0 1 9.871 2.785 6.055 6.055 0 0 1 10.35 3.866 6.035 6.035 0 0 1 4.071-1.576 5.963 5.963 0 0 1 1.957.33v-39.041h-6.946a9.021 9.021 0 0 0 -7.309 3.748l-7.124 9.913a1 1 0 0 1 -1.812-.583v-38.684a6.007 6.007 0 0 1 6-6h17.19v-3.1a1.955 1.955 0 0 0 -1.953-1.952h-96.903a1.955 1.955 0 0 0 -1.953 1.953v91.547h11.005v-18.913a6.007 6.007 0 0 1 6-6 1 1 0 0 1 0 2 4 4 0 0 0 -4 4v19.606c.016.107.024.175.029.245a1 1 0 0 1 -1 1.062z"/><path d="m80.619 18.33h-59.241a1 1 0 0 1 0-2h58.241v-3.278a6.007 6.007 0 0 1 6-6h17.19v-3.1a1.955 1.955 0 0 0 -1.953-1.952h-96.903a1.955 1.955 0 0 0 -1.953 1.953v12.377h6.954a1 1 0 1 1 0 2h-7.954a1 1 0 0 1 -1-1v-13.377a3.958 3.958 0 0 1 3.953-3.953h96.9a3.958 3.958 0 0 1 3.953 3.953v4.1a1 1 0 0 1 -1 1h-18.187a4 4 0 0 0 -4 4v4.277a1 1 0 0 1 -1 1z"/><path d="m87.486 67.384h-11.925a1 1 0 0 1 -1-1v-7.7a4.058 4.058 0 1 0 -8.116 0v7.7a1 1 0 0 1 -1 1h-5.059a1 1 0 0 1 -1-1v-5.769l-4.565 6.352a1 1 0 0 1 -.812.417h-.342a6.007 6.007 0 0 1 -6-6v-10.905a6.007 6.007 0 0 1 6-6h26.952a1 1 0 0 1 1 1v3.151l2.681-3.73a1 1 0 0 1 .813-.417h2.371a6.007 6.007 0 0 1 6 6v10.901a6.007 6.007 0 0 1 -5.998 6zm-10.926-2h10.926a4 4 0 0 0 4-4v-10.905a4 4 0 0 0 -4-4h-1.858l-4.2 5.84a1 1 0 0 1 -1.812-.583v-5.257h-25.949a4 4 0 0 0 -4 4v10.905a4.005 4.005 0 0 0 3.832 4l6.076-8.454a1 1 0 0 1 1.812.583v7.874h3.058v-6.7a6.058 6.058 0 1 1 12.116 0z"/><path d="m55.386 102.193h-36.381a6.007 6.007 0 0 1 -6-6v-19.606a6.007 6.007 0 0 1 6-6 1 1 0 0 1 0 2 4 4 0 0 0 -4 4v19.606a4 4 0 0 0 4 4h34.32l-5.294-5.293a3.8 3.8 0 0 1 0-5.361 8.928 8.928 0 0 1 11.355-1.051v-27.873l-5.312 7.392a11.024 11.024 0 0 1 -8.932 4.581h-18.485a1 1 0 1 1 0-2h18.485a9.019 9.019 0 0 0 7.308-3.748l7.125-9.913a1 1 0 0 1 1.812.583v33.182a1 1 0 0 1 -1.707.707l-.447-.447a6.921 6.921 0 0 0 -9.788 0 1.794 1.794 0 0 0 0 2.533l6.969 6.969a1 1 0 0 1 -.644 1.705 2.819 2.819 0 0 1 -.384.034z"/><path d="m80.619 52.735a1 1 0 0 1 -1-1v-38.683a6.007 6.007 0 0 1 6-6h36.381a6.007 6.007 0 0 1 6 6v19.606a6.007 6.007 0 0 1 -6 6 1 1 0 0 1 0-2 4 4 0 0 0 4-4v-19.606a4 4 0 0 0 -4-4h-36.381a4 4 0 0 0 -4 4v35.578l5.312-7.392a11.028 11.028 0 0 1 8.934-4.581h17.748a1 1 0 0 1 0 2h-17.749a9.021 9.021 0 0 0 -7.309 3.748l-7.124 9.913a1 1 0 0 1 -.812.417z"/><path d="m99.839 128h-28.322a1 1 0 0 1 -1-1v-10.03a1 1 0 0 1 1-1h15.622a1 1 0 0 1 0 2h-14.622v8.03h26.322v-8.03h-2.326a1 1 0 0 1 0-2h3.326a1 1 0 0 1 1 1v10.03a1 1 0 0 1 -1 1z"/><path d="m71.517 118.1a1 1 0 0 1 -.7-.286 21.4 21.4 0 0 1 -1.527-1.664l-21.259-21.25a3.8 3.8 0 0 1 0-5.361 8.921 8.921 0 0 1 12.616 0l3.8 3.8v-34.658a6.058 6.058 0 1 1 12.116 0v13.613a6.055 6.055 0 0 1 9.871 2.785 6.055 6.055 0 0 1 10.35 3.866 6.056 6.056 0 0 1 10.13 4.483v19.222a21.072 21.072 0 0 1 -6.372 15.154 1 1 0 0 1 -1.087.208.885.885 0 0 1 -.087-.041h-2.855a1 1 0 0 1 0-2h3.027a19.077 19.077 0 0 0 5.371-13.321v-19.223a4.059 4.059 0 1 0 -8.117 0 1 1 0 1 1 -2 0v-4.089a4.058 4.058 0 1 0 -8.116 0 1 1 0 0 1 -2 0v-2.549a4.059 4.059 0 0 0 -8.117 0 1 1 0 0 1 -2 0v-18.108a4.058 4.058 0 1 0 -8.116 0v37.069a1 1 0 0 1 -1.707.707l-5.5-5.5a6.929 6.929 0 0 0 -9.788 0 1.794 1.794 0 0 0 0 2.533l21.323 21.322c.354.424.694.805 1.038 1.163h15.328a1 1 0 0 1 0 2h-15.13a1.035 1.035 0 0 1 -.1.051 1 1 0 0 1 -.392.074z"/><path d="m70.576 30.894h-56.571a1 1 0 1 1 0-2h56.571a1 1 0 0 1 0 2z"/><path d="m22.657 38.687h-8.652a1 1 0 1 1 0-2h8.652a1 1 0 0 1 0 2z"/><path d="m70.576 38.687h-38.782a1 1 0 1 1 0-2h38.782a1 1 0 0 1 0 2z"/><path d="m49.584 48.6h-35.579a1 1 0 1 1 0-2h35.579a1 1 0 0 1 0 2z"/><path d="m48.667 58.51h-34.662a1 1 0 1 1 0-2h34.662a1 1 0 0 1 0 2z"/><path d="m111.774 31.208h-15.929a2.831 2.831 0 0 1 -2.838-2.838v-10.3a1 1 0 0 1 2-.034l.2.139c1.148.887 3.293 2.479 6.4 4.754l.365.256a8.653 8.653 0 0 0 1.093.785 1.741 1.741 0 0 0 .746.337 1.563 1.563 0 0 0 .689-.307 8.019 8.019 0 0 0 1.094-.777l.438-.308c3.175-2.293 5.339-3.894 6.42-4.749l.159-.127a1.006 1.006 0 0 1 .148-.5.973.973 0 0 1 .867-.5 1.01 1.01 0 0 1 .984 1.027v10.3a2.831 2.831 0 0 1 -2.838 2.838zm-16.767-10.668v7.83a.83.83 0 0 0 .838.838h15.93a.83.83 0 0 0 .838-.838v-7.8c-1.23.931-3.046 2.263-5.421 3.978l-.4.277a9.294 9.294 0 0 1 -1.279.9 2.815 2.815 0 0 1 -3.464-.032 9.773 9.773 0 0 1 -1.278-.908l-.331-.229c-2.382-1.744-4.2-3.087-5.433-4.016z"/><path d="m103.81 26.306a3.348 3.348 0 0 1 -1.759-.614 9.773 9.773 0 0 1 -1.278-.908l-.331-.229c-3.143-2.3-5.3-3.9-6.434-4.776l-.238-.169a1.9 1.9 0 0 1 -.763-1.541v-.728a2.831 2.831 0 0 1 2.838-2.841h15.93a2.831 2.831 0 0 1 2.838 2.838v.728a1.875 1.875 0 0 1 -.732 1.518l-.18.144c-1.106.875-3.295 2.495-6.509 4.816l-.4.277a9.337 9.337 0 0 1 -1.279.9 3.246 3.246 0 0 1 -1.703.585zm-8.8-8.271.194.139c1.148.887 3.293 2.479 6.4 4.754l.365.256a8.653 8.653 0 0 0 1.093.785 1.741 1.741 0 0 0 .746.337 1.563 1.563 0 0 0 .692-.306 8.019 8.019 0 0 0 1.094-.777l.438-.308c3.177-2.3 5.343-3.9 6.423-4.751l.188-.15-.031-.674a.83.83 0 0 0 -.838-.838h-15.929a.83.83 0 0 0 -.838.838z"/><path d="m25.219 97.193a1.958 1.958 0 0 1 -1.155-.376 1.711 1.711 0 0 1 -.712-1.174l-.909-3.937a1.861 1.861 0 0 1 .156-1.285 1.827 1.827 0 0 1 1-.912l4.249-1.822a1.962 1.962 0 0 1 1.152-.121 1.764 1.764 0 0 1 1.128.728l1.334 1.631a12.509 12.509 0 0 0 3.022-2.251 13.18 13.18 0 0 0 2.24-3.021l-1.69-1.409a1.934 1.934 0 0 1 -.633-.989 1.967 1.967 0 0 1 .069-1.2l1.856-4.334a1.846 1.846 0 0 1 .892-.922 1.881 1.881 0 0 1 1.3-.153l3.922.905a1.708 1.708 0 0 1 1.173.711 1.984 1.984 0 0 1 .387 1.152 18.552 18.552 0 0 1 -2.55 9.47 18.943 18.943 0 0 1 -6.754 6.756 18.557 18.557 0 0 1 -9.477 2.553zm-.819-5.849.9 3.845a16.523 16.523 0 0 0 8.381-2.273 16.953 16.953 0 0 0 6.042-6.043 16.567 16.567 0 0 0 2.277-8.373l-3.87-.894-1.8 4.194 2.289 1.827a1 1 0 0 1 .267 1.19 15.151 15.151 0 0 1 -2.974 4.266 14.538 14.538 0 0 1 -4.3 3 1 1 0 0 1 -1.191-.277l-1.84-2.252z"/></g></svg>