<?xml version="1.0" encoding="UTF-8" standalone="no"?>
<svg
   xmlns:dc="http://purl.org/dc/elements/1.1/"
   xmlns:cc="http://creativecommons.org/ns#"
   xmlns:rdf="http://www.w3.org/1999/02/22-rdf-syntax-ns#"
   xmlns:svg="http://www.w3.org/2000/svg"
   xmlns="http://www.w3.org/2000/svg"
   xmlns:sodipodi="http://sodipodi.sourceforge.net/DTD/sodipodi-0.dtd"
   xmlns:inkscape="http://www.inkscape.org/namespaces/inkscape"
   sodipodi:docname="2.svg"
   width="204.22151mm"
   height="51.997124mm"
   viewBox="0 0 771.86083 196.52456"
   version="1.1"
   id="svg183"
   inkscape:version="1.0 (4035a4fb49, 2020-05-01)">
  <defs
     id="defs177" />
  <sodipodi:namedview
     fit-margin-bottom="0"
     fit-margin-right="0"
     fit-margin-left="0"
     fit-margin-top="0"
     inkscape:window-maximized="1"
     inkscape:window-y="-8"
     inkscape:window-x="-8"
     inkscape:window-height="705"
     inkscape:window-width="1366"
     id="base"
     pagecolor="#383838"
     bordercolor="#666666"
     borderopacity="1.0"
     inkscape:pageopacity="0"
     inkscape:pageshadow="2"
     inkscape:zoom="0.70710678"
     inkscape:cx="203.92544"
     inkscape:cy="213.98628"
     inkscape:document-units="px"
     inkscape:current-layer="layer1"
     inkscape:document-rotation="0"
     showgrid="false"
     inkscape:snap-page="true"
     inkscape:showpageshadow="false" />
  <metadata
     id="metadata180">
    <rdf:RDF>
      <cc:Work
         rdf:about="">
        <dc:format>image/svg+xml</dc:format>
        <dc:type
           rdf:resource="http://purl.org/dc/dcmitype/StillImage" />
        <dc:title></dc:title>
      </cc:Work>
    </rdf:RDF>
  </metadata>
  <g
     transform="translate(-13.317326,-26.493812)"
     inkscape:label="Layer 1"
     inkscape:groupmode="layer"
     id="layer1">
    <g
       transform="translate(0,-175.36248)"
       id="g917">
      <path
         style="fill:#ffffff;stroke:none;stroke-width:1px;stroke-linecap:butt;stroke-linejoin:miter;stroke-opacity:1"
         d="m 35.885669,205.23774 21.566757,1.67938 21.036427,3.53554 34.648237,5.21491 15.02601,1.85615 40.30509,7.6014 36.15084,4.86136 28.37265,5.03814 5.03814,3.71231 2.82843,5.83363 v 5.56846 l -1.67938,16.97057 -3.27037,9.36916 -0.26516,6.8059 L 390.75,268.75 l 4.125,-12 v -15.875 l 1.75,-17.5 0.75,-9.5 3.375,-6.5 c 0,0 7,-2.375 7.5,-2.625 0.5,-0.25 26,2 26,2 l 21.375,1.25 56,4 30,3.75 22.125,1.75 30.875,1.625 9.75,2.625 4.25,3.125 2.625,5.125 v 4.75 l 0.375,5.375 -1.25,17.25 c 0,0 -0.875,10.5 -1,11 -0.125,0.5 -2.23544,14.99804 -2.23544,14.99804 l -0.82819,7.0777 v 0 l 15.05872,2.73341 10.42982,-1.14905 11.93243,-0.17678 h 26.5165 l 15.99829,-0.97227 20.24093,1.67938 26.87006,-1.59099 10.78338,-0.17678 25.19068,0.44195 9.01561,1.59099 4.68458,6.54073 0.70711,6.18719 -0.7955,5.56846 0.70711,17.58929 -0.17677,8.75044 v 14.49569 l -0.44195,10.16466 0.7955,14.67247 c 0,0 -0.0884,6.54073 -0.0884,7.95495 0,1.41421 -1.41421,6.01041 -1.41421,6.01041 l -6.18719,2.82842 -5.39169,3.27037 -10.6066,-0.79549 c 0,0 -9.36916,-1.06066 -9.89949,-1.06066 -0.53033,0 -25.01391,0.61871 -25.01391,0.61871 l -12.28598,-0.7071 -14.84924,0.44194 -31.1127,0.97227 -13.70019,-0.88388 -8.30851,0.88388 -34.91339,-0.88388 -17.94284,1.14905 -17.14734,-1.32583 -3.09359,-3.0052 c 0,0 -3.0052,-3.62392 -3.09359,-4.06587 -0.0884,-0.44194 -1.5026,-6.8059 -1.5026,-6.8059 l 1.59099,-26.16295 -1.06066,-33.67596 -9.01562,0.53033 L 439.82042,310.95021 417.75,309.25 419.22593,318.46322 422,357.75 v 6.1875 l -2.125,3.3125 -4.5,2.375 -1.1875,2.3125 -4.625,1.3125 -30,2.75 -15.625,1.625 -139.6875,11.875 -8.39385,1.3218 -2.9499,-4.0093 -2,-2.40625 L 209,382.125 207.78125,381 l -0.0937,-4.125 0.125,-2.90625 -0.53125,-4.15625 2.37591,-13.87262 -1.59099,-8.83884 -1.23744,-7.86656 -6.36396,-3.18198 -14.49569,-2.20971 L 25.75,308 l -4.375,-1.375 -3.875,-4 c 0,0 -1.875,-2.375 -2.5,-4.125 -0.625,-1.75 -0.125,-7 -0.125,-7 l 1.625,-5.25 3.625,-14.5 2,-11.375 3.375,-23.625 1.25,-13.75 1.5,-10.25 4.25,-4.5 z"
         id="path909" />
      <g
         id="g895"
         transform="translate(0,193)">
        <path
           style="fill:#30b3f0;stroke-width:0.43706"
           d="m 606.49349,178.46612 c -0.66053,-0.66051 -0.17998,-4.45931 1.8319,-14.48122 l 2.12328,-10.57688 h -0.9757 c -0.53662,0 -1.81183,0.29502 -2.8338,0.65559 -1.02198,0.36058 -1.92154,0.65559 -1.99899,0.65559 -0.0774,0 0.0659,-0.5931 0.31862,-1.31801 0.6208,-1.78081 1.94535,-2.61553 4.15045,-2.61553 h 1.83854 l 0.49606,-2.51309 c 1.26105,-6.38823 3.15794,-10.16777 6.30957,-12.57163 2.97048,-2.2657 7.158,-3.03948 9.42756,-1.74208 1.36009,0.77749 2.8023,0.78697 4.91693,0.0323 1.42905,-0.50999 1.63897,-0.50028 1.63897,0.0757 0,0.36335 -1.18006,6.65687 -2.62236,13.9856 -1.4423,7.32872 -2.62236,13.94652 -2.62236,14.70622 0,1.86072 1.09103,3.32401 2.47835,3.32401 2.77122,0 5.84843,-2.99866 10.76426,-10.48943 1.5735,-2.39779 2.62957,-5.68764 2.1919,-6.82825 -0.17496,-0.45586 0.24432,-0.60177 1.7291,-0.60177 3.1189,0 3.19045,0.36075 1.42551,7.18743 -1.69601,6.56006 -1.90401,8.99819 -0.85699,10.04521 0.92736,0.92734 1.71673,0.86574 3.78223,-0.29514 3.18674,-1.79104 9.32634,-10.9087 10.53232,-15.6411 0.5892,-2.31201 0.66114,-2.39348 2.23106,-2.52652 2.64032,-0.22375 2.93804,0.3486 1.95877,3.76577 -1.36293,4.75597 -1.88456,10.03464 -1.19632,12.10585 0.70165,2.11155 1.7388,2.39683 4.18218,1.15031 3.46488,-1.76764 7.27023,-7.03656 8.70029,-12.04639 1.43688,-5.03372 1.56843,-4.76917 -2.2499,-4.52413 -1.80287,0.1157 -3.27795,0.08 -3.27795,-0.0793 0,-0.1593 0.55162,-0.81813 1.22583,-1.46406 1.06074,-1.01623 1.59054,-1.17442 3.93353,-1.17442 2.14662,0 2.70772,-0.13946 2.70772,-0.673 0,-0.98617 1.51533,-3.78961 2.55811,-4.73267 0.49659,-0.4491 1.78771,-0.91628 2.86913,-1.03817 l 1.96624,-0.22162 -1.50152,2.7864 c -0.82582,1.53253 -1.50597,3.03225 -1.51144,3.33273 -0.007,0.41224 1.51865,0.54486 6.21818,0.54036 3.42546,-0.003 6.62347,-0.11222 7.10664,-0.24209 0.51416,-0.13819 1.20196,-1.01799 1.65825,-2.12125 1.08907,-2.63304 2.48652,-3.80732 4.84774,-4.07346 l 1.97573,-0.22269 -1.50152,2.7864 c -0.82583,1.53253 -1.50598,3.05456 -1.51144,3.38231 -0.008,0.48695 1.3808,0.56557 7.59697,0.43 l 7.60694,-0.16589 -0.59781,1.15601 c -0.32875,0.6358 -0.91616,1.27817 -1.30528,1.42749 -0.38911,0.14933 -3.81671,0.2715 -7.61681,0.2715 h -6.90935 l -0.90183,3.38721 c -2.75462,10.34607 -2.25291,15.40636 1.52748,15.40636 1.57949,0 4.20539,-1.48929 5.77207,-3.27365 1.08544,-1.23622 1.44077,-1.43043 1.64475,-0.89889 0.77001,2.00664 -1.67066,5.01543 -5.69542,7.02104 -2.90658,1.44843 -5.03904,1.41835 -6.83929,-0.0965 -0.77228,-0.64983 -1.67245,-1.82357 -2.00033,-2.60832 -1.00432,-2.4037 -0.73343,-7.37442 0.71385,-13.09961 0.72049,-2.85015 1.31052,-5.31313 1.31118,-5.4733 0,-0.16017 -3.22389,-0.30233 -7.16564,-0.31591 l -7.16682,-0.0247 -0.8986,3.37533 c -2.7512,10.33374 -2.24802,15.39446 1.53067,15.39446 1.57949,0 4.20539,-1.48929 5.77208,-3.27365 1.08544,-1.23621 1.44077,-1.43043 1.64474,-0.89889 0.77001,2.00665 -1.67066,5.01544 -5.69541,7.02104 -2.90658,1.44843 -5.03904,1.41835 -6.83929,-0.0965 -1.7548,-1.47657 -2.59649,-3.44395 -2.59649,-6.06916 v -2.03401 l -2.84963,3.07787 c -3.10461,3.35326 -5.69895,4.89562 -8.23473,4.89562 -3.10968,0 -4.63826,-2.80005 -4.65255,-8.52267 l -0.007,-3.05942 -1.41524,2.52805 c -1.91013,3.41207 -5.15823,7.34049 -7.29178,8.81903 -4.93834,3.42229 -9.67476,0.50699 -9.04019,-5.56433 l 0.26923,-2.57571 -1.6791,2.11149 c -3.75749,4.72483 -7.64846,7.57474 -10.34193,7.57474 -2.84303,0 -5.42243,-3.03047 -5.44598,-6.39835 -0.009,-1.27942 1.06402,-7.7286 1.57145,-9.44507 0.20712,-0.70068 -0.24852,-0.76486 -5.43056,-0.76486 h -5.6566 l -2.07412,10.52576 c -1.36839,6.94414 -2.00147,11.17042 -1.8606,12.42033 0.1864,1.65376 0.0959,1.92615 -0.71211,2.14301 -1.26507,0.33954 -3.12117,0.32298 -3.47515,-0.031 z m 20.02884,-28.66384 c 0.81853,-3.46767 2.30383,-11.50305 2.15396,-11.65291 -0.0992,-0.0992 -0.63823,0.0281 -1.19776,0.28309 -0.87241,0.3975 -1.26175,0.25432 -2.73346,-1.00524 -0.94387,-0.80782 -2.04526,-1.47615 -2.44749,-1.48518 -1.24335,-0.0279 -3.50461,2.24973 -4.52484,4.55756 -0.87311,1.97507 -2.39238,8.12053 -2.39238,9.67722 0,0.4879 1.08365,0.60884 5.4549,0.60884 5.29682,0 5.46168,-0.0285 5.68707,-0.98338 z m 89.16328,19.62174 c -1.64404,-0.76793 -3.51636,-2.74411 -4.12427,-4.3531 -0.25568,-0.6767 -0.46468,-2.64347 -0.4645,-4.3706 4.3e-4,-4.14117 1.5582,-7.56603 4.74424,-10.43053 5.72024,-5.14298 14.48604,-4.36212 14.48604,1.29042 0,4.14157 -4.98082,7.9157 -11.88029,9.0021 l -3.00579,0.47331 0.27443,1.32165 c 0.66205,3.18811 2.51082,4.40069 6.08898,3.99368 4.82934,-0.54931 11.98331,-5.55267 16.27485,-11.38232 1.68832,-2.29343 1.88058,-2.78627 1.64072,-4.20608 -0.24038,-1.42273 -0.15498,-1.6395 0.74021,-1.87925 3.83659,-1.02746 4.24922,-0.14368 2.99486,6.41416 -0.55992,2.92713 -1.09702,5.61707 -1.19361,5.97764 -0.19572,0.73075 -0.14318,0.65753 3.46256,-4.82368 2.986,-4.53908 7.06512,-8.47972 9.54762,-9.2235 4.35447,-1.30462 6.4059,2.25327 2.6995,4.6818 -0.96323,0.63115 -1.12512,0.6314 -1.81961,0.003 -0.41927,-0.37944 -1.15983,-0.68988 -1.64571,-0.68988 -1.43124,0 -4.20421,2.30783 -6.63666,5.52339 -2.43709,3.22174 -6.1785,10.21647 -6.1785,11.55099 0,1.68244 -3.54364,2.39025 -4.35709,0.87028 -0.33173,-0.61981 -0.21827,-2.06467 0.42036,-5.35398 0.48107,-2.47779 0.87526,-4.67494 0.876,-4.88254 0,-0.20761 -1.73474,1.27459 -3.85653,3.29378 -5.17247,4.92225 -9.90649,7.40599 -14.57464,7.64671 -2.14395,0.11055 -3.63524,-0.0372 -4.51317,-0.44734 z m 5.46325,-12.15908 c 3.93096,-1.68763 6.03375,-4.99143 4.58459,-7.20314 -0.64668,-0.98696 -0.95804,-1.09829 -2.49483,-0.89217 -3.15334,0.42296 -6.38042,4.04718 -7.16201,8.04343 l -0.27404,1.40121 1.68976,-0.25249 c 0.92937,-0.13886 2.57481,-0.63244 3.65653,-1.09684 z m -428.31872,-6.64429 c 0,-0.0908 0.34419,-0.43494 0.76486,-0.76486 0.6932,-0.54364 0.70866,-0.52818 0.16502,0.16502 -0.57097,0.72803 -0.92988,0.95956 -0.92988,0.59984 z m 61.18839,-3.05942 c 0,-0.0908 0.34419,-0.43494 0.76486,-0.76486 0.6932,-0.54364 0.70866,-0.52818 0.16501,0.16502 -0.57096,0.72803 -0.92987,0.95956 -0.92987,0.59984 z m -0.43706,-2.62236 c 0,-0.0908 0.34419,-0.43494 0.76486,-0.76486 0.6932,-0.54364 0.70866,-0.52818 0.16501,0.16502 -0.57096,0.72803 -0.92987,0.95956 -0.92987,0.59984 z m -43.90585,-21.22072 c -0.1383,-0.22377 -0.0843,-0.51013 0.11989,-0.63636 0.20424,-0.12623 0.37135,0.0569 0.37135,0.40686 0,0.73695 -0.13783,0.80134 -0.49124,0.2295 z m 241.894,-34.339401 c 0.81546,-0.84134 1.58097,-1.52971 1.70116,-1.52971 0.1202,0 -0.44864,0.68837 -1.2641,1.52971 -0.81547,0.84134 -1.58098,1.52971 -1.70117,1.52971 -0.12019,0 0.44864,-0.68837 1.26411,-1.52971 z M 526.6572,81.128125 c 0,-0.09076 0.34419,-0.434941 0.76486,-0.764855 0.69322,-0.543646 0.70864,-0.528187 0.16503,0.165016 -0.57098,0.728033 -0.92989,0.959556 -0.92989,0.599839 z m -31.48658,-3.003668 c 1.81117,-1.929703 2.20357,-2.276685 2.20357,-1.948505 0,0.07014 -0.93422,1.004359 -2.07604,2.076034 l -2.07603,1.948505 z M 102.70908,75.009286 c 0,-0.09076 0.34419,-0.43494 0.76486,-0.764855 0.6932,-0.543645 0.70866,-0.528187 0.16501,0.165017 -0.57096,0.728032 -0.92987,0.959556 -0.92987,0.599838 z m -6.992958,-3.059419 c 0,-0.09076 0.344185,-0.43494 0.764855,-0.764855 0.693203,-0.543646 0.708662,-0.528187 0.165016,0.165016 -0.570962,0.728033 -0.929871,0.959557 -0.929871,0.599839 z M 128.30518,61.93439 c 0.16413,-0.431037 0.40852,-0.673605 0.54309,-0.539039 0.13456,0.134566 2.8e-4,0.48723 -0.29842,0.783705 -0.43165,0.428433 -0.48185,0.378232 -0.24467,-0.244666 z"
           id="path905" />
        <path
           style="fill:#01579a;stroke-width:0.43706"
           d="m 266.0238,166.22845 c -0.54718,-0.54719 -0.27721,-5.60307 0.80128,-15.00573 0.5928,-5.16823 1.08115,-9.54429 1.08523,-9.72458 0.0136,-0.59984 -1.93515,-0.31957 -3.86419,0.55575 l -1.90484,0.86435 0.29463,-1.20174 c 0.43238,-1.76365 1.16655,-2.31225 3.55081,-2.65331 l 2.13654,-0.30561 0.5788,-4.09135 c 0.31833,-2.25025 0.96203,-5.11565 1.43044,-6.36758 2.20626,-5.89677 8.34996,-9.40088 13.32699,-7.60116 1.12735,0.40766 1.81123,0.37044 3.51812,-0.1915 1.16531,-0.38363 2.15902,-0.65724 2.20825,-0.60801 0.0492,0.0492 -0.59642,6.47823 -1.43478,14.28668 -1.66101,15.47052 -1.61934,17.03066 0.48034,17.98734 0.83429,0.38013 1.42813,0.28212 3.05103,-0.50351 2.19516,-1.06266 3.72985,-3.04176 7.42981,-9.58134 1.68203,-2.97294 2.03295,-3.94826 1.8426,-5.12124 -0.22179,-1.36674 -0.15025,-1.46483 1.26151,-1.72968 2.39744,-0.44976 2.81407,-0.0751 2.81687,2.53319 10e-4,1.26955 -0.22993,4.3175 -0.514,6.77322 -0.63587,5.49689 -0.2876,6.68008 1.96629,6.68008 2.75211,0 6.67944,-3.74891 11.17685,-10.66908 2.56829,-3.95182 2.97472,-5.13136 2.28768,-6.63927 -0.43635,-0.95767 -0.36896,-1.11822 0.62857,-1.49748 1.9281,-0.73306 3.20399,-0.52761 3.46884,0.55858 0.13188,0.54087 -0.045,3.53986 -0.39305,6.66443 -0.34806,3.12457 -0.56213,5.75175 -0.47571,5.83817 0.0864,0.0864 0.73109,-1.10871 1.43259,-2.65584 2.93498,-6.47295 6.94385,-11.58269 10.42253,-13.28466 1.33188,-0.65162 2.51665,-1.43245 2.63281,-1.73516 0.30372,-0.79149 1.34789,-1.16688 4.05047,-1.45617 l 2.37715,-0.25446 0.50038,-1.96677 c 0.86964,-3.41818 1.89668,-4.51079 4.74181,-5.04454 l 1.58142,-0.29668 -1.06312,2.34282 c -0.58471,1.28854 -1.19279,2.87439 -1.35129,3.5241 -0.27551,1.12939 -0.22391,1.17297 1.17448,0.99204 0.80445,-0.10409 3.76976,-0.39323 6.58958,-0.64254 2.81981,-0.24931 5.63577,-0.64676 6.25769,-0.88321 1.04315,-0.39661 1.10791,-0.35369 0.83574,0.5539 -0.56531,1.88512 -1.22645,2.1219 -7.67733,2.74955 -3.4602,0.33667 -6.71337,0.61797 -7.22925,0.62511 -0.83569,0.0116 -1.01966,0.45389 -1.68694,4.05579 -0.93884,5.06782 -1.07159,10.99899 -0.28775,12.85578 0.78017,1.84805 2.56228,2.5876 4.60826,1.91237 1.55835,-0.5143 5.07883,-3.57345 5.07883,-4.41328 0,-0.25484 0.19668,-0.34179 0.43706,-0.19322 0.92586,0.57221 0.39078,2.45279 -1.20191,4.22421 -2.57415,2.86302 -5.13966,4.29845 -7.68251,4.29845 -1.8939,0 -2.33126,-0.18435 -3.58099,-1.50945 -2.60986,-2.76726 -2.98139,-7.60015 -1.2816,-16.67134 0.38651,-2.06269 0.60181,-3.85129 0.47844,-3.97466 -0.12338,-0.12338 -1.23255,-0.0857 -2.46484,0.0838 -2.12993,0.29295 -2.20509,0.3473 -1.52285,1.10116 0.79923,0.88314 0.45436,1.96478 -1.20927,3.79269 -0.76257,0.83786 -0.95448,0.87962 -1.50632,0.32779 -0.94621,-0.94621 -2.71747,-0.76497 -4.29681,0.43965 -2.6059,1.98761 -6.91565,9.50798 -8.75011,15.26863 -1.03052,3.23606 -1.80169,4.00475 -3.57192,3.56046 l -1.12552,-0.28249 0.27527,-4.23681 c 0.1514,-2.33025 0.3966,-5.02352 0.5449,-5.98505 0.26272,-1.70351 0.21135,-1.65903 -2.00783,1.73859 -5.62752,8.61591 -12.30755,12.39982 -15.62961,8.85342 -1.4679,-1.56704 -1.88427,-3.2283 -1.59863,-6.37831 l 0.26319,-2.90252 -1.83584,2.82863 c -2.75605,4.24646 -4.799,6.58259 -6.95641,7.95471 -4.10903,2.61336 -8.02407,0.86269 -8.93425,-3.99507 -0.15621,-0.83373 -0.0648,-3.55195 0.20313,-6.04049 0.26793,-2.48854 0.38208,-4.62968 0.25367,-4.7581 -0.24132,-0.24132 -10.86899,0.67879 -11.15605,0.96585 -0.46383,0.46383 -2.27771,19.21176 -2.12139,21.92625 0.14098,2.44795 0.0425,3.20089 -0.44307,3.38722 -0.86746,0.33287 -2.96901,0.3001 -3.3209,-0.0518 z m 14.05716,-28.55037 c 1.76193,-0.20088 3.29707,-0.45879 3.41143,-0.57315 0.35103,-0.35103 1.61358,-12.54564 1.32842,-12.83081 -0.14714,-0.14713 -0.74732,0.0469 -1.33373,0.43109 -0.93277,0.61118 -1.13262,0.61859 -1.59687,0.0592 -0.29186,-0.35167 -0.7711,-0.6394 -1.06499,-0.6394 -0.29388,0 -0.87923,-0.38111 -1.30078,-0.84691 -0.627,-0.69282 -0.97713,-0.76681 -1.92444,-0.40664 -1.81566,0.69031 -2.60007,1.62088 -3.59358,4.26315 -0.8277,2.20132 -2.21889,10.35932 -1.8797,11.02268 0.14239,0.27847 2.61507,0.1295 7.95424,-0.47921 z m 22.52218,-7.65374 c -0.45243,-1.17902 0.22867,-2.73242 1.31792,-3.0058 0.57538,-0.14441 2.08299,-0.96032 3.35025,-1.81312 1.26727,-0.85281 2.45162,-1.64172 2.63191,-1.75314 0.18029,-0.11143 0.22547,0.18871 0.1004,0.66697 -0.31642,1.20999 -3.35415,4.57496 -5.1093,5.65971 -1.74215,1.07671 -1.96309,1.10037 -2.29118,0.24538 z M 144.66683,99.342093 c -0.36057,-0.131201 -1.19645,-0.742503 -1.8575,-1.358443 -2.64256,-2.462221 -0.75293,-5.178273 5.12706,-7.369333 2.4282,-0.904823 3.26125,-1.411061 3.11205,-1.891158 -0.11206,-0.360574 -0.80443,-2.327344 -1.53859,-4.370599 -1.5195,-4.228926 -1.65407,-5.994246 -0.62264,-8.167823 0.80413,-1.694591 3.61106,-3.789537 4.77183,-3.561444 0.41195,0.08095 1.12376,0.649641 1.5818,1.263763 0.67136,0.900121 0.74599,1.344908 0.38501,2.294363 -0.3735,0.982367 -2.29371,2.578934 -3.65614,3.039914 -0.4586,0.155165 2.50851,8.328845 3.09431,8.524114 0.77614,0.258714 6.3901,-2.798088 9.45969,-5.150799 2.4597,-1.885262 3.02814,-2.15161 3.59245,-1.683275 0.58658,0.486815 0.48772,0.712963 -0.79077,1.808978 -2.4582,2.107355 -7.69173,5.452668 -9.77507,6.248305 -1.8947,0.723592 -1.96243,0.810763 -1.70325,2.19231 0.78138,4.165097 -3.70205,8.545465 -8.6531,8.454185 -1.02935,-0.01897 -2.16656,-0.141852 -2.52714,-0.273058 z m 5.18133,-2.063486 c 0.66242,-0.34255 1.43936,-1.138511 1.72654,-1.768808 0.60646,-1.33104 0.70067,-4.16428 0.13847,-4.16428 -0.68812,0 -3.73974,1.39082 -4.97119,2.265692 -1.89707,1.347748 -2.25702,2.360097 -1.21104,3.406069 1.03685,1.036859 2.63092,1.133349 4.31722,0.261327 z M 537.95787,95.92748 c -2.16131,-1.17414 -2.61537,-4.819499 -1.61101,-12.933708 0.93002,-7.513541 -0.85965,-9.055597 -6.08121,-5.239807 -3.22183,2.354433 -12.34965,14.407046 -12.34965,16.306801 0,0.707932 -0.276,0.81152 -1.8575,0.697098 -1.61389,-0.11677 -1.87381,-0.277699 -1.98176,-1.227046 -0.0684,-0.600957 0.35554,-2.469388 0.94195,-4.152069 0.5864,-1.682681 2.3651,-6.768882 3.95272,-11.30267 1.93775,-5.53366 2.67866,-8.163471 2.25405,-8.000544 -0.34785,0.133492 -3.93909,-0.228473 -7.98054,-0.804365 -6.77958,-0.966072 -7.39024,-0.991658 -7.89334,-0.330745 -0.8968,1.178086 -3.98625,9.427675 -4.72729,12.623016 -0.8287,3.573248 -0.54715,5.504695 0.97714,6.70372 2.06222,1.622113 5.60984,0.895418 8.64701,-1.771242 1.23352,-1.083025 1.594,-1.222714 1.79614,-0.695969 0.75629,1.970803 -3.15832,5.303713 -7.79396,6.63581 -3.914,1.124721 -6.38723,0.195047 -8.06524,-3.031688 -0.70847,-1.362372 -0.90786,-5.887546 -0.33846,-7.681616 0.26338,-0.829776 -0.23461,-0.546701 -2.45846,1.397525 -7.80086,6.820001 -14.0027,8.596003 -17.39774,4.982151 -1.82472,-1.942325 -1.70431,-4.225836 0.57128,-10.833583 1.11022,-3.223859 2.01861,-6.583586 2.01861,-7.466058 0,-1.346957 0.17539,-1.648511 1.09265,-1.878733 0.60096,-0.150829 1.58434,-0.150829 2.1853,0 1.635,0.410365 1.43731,2.544292 -0.87412,9.435844 -2.24172,6.68373 -2.38416,7.962213 -0.9954,8.934946 1.37214,0.9611 2.37262,0.855204 5.38519,-0.57 2.7679,-1.309445 10.00329,-7.036122 11.57395,-9.160544 0.98203,-1.328264 3.92249,-7.82182 3.92249,-8.662221 0,-0.313582 -1.37587,-0.649458 -3.60575,-0.880247 l -3.60574,-0.37318 1.2964,-1.22871 c 1.24348,-1.178515 1.42202,-1.217234 4.3706,-0.947835 l 3.0742,0.280877 1.05584,-2.022814 c 1.59016,-3.046408 3.14775,-4.163848 5.80399,-4.163848 h 2.20365 l -1.07189,1.420445 c -0.58955,0.781245 -1.60471,2.337178 -2.25593,3.457633 l -1.18408,2.037184 1.22071,0.243517 c 3.55841,0.709882 11.49467,1.630797 12.98343,1.506589 1.68924,-0.14093 1.72254,-0.178801 2.6905,-3.05601 1.75095,-5.204806 1.75243,-4.735238 -0.0149,-4.735238 -3.2967,0 -5.47868,-1.730176 -5.47868,-4.344218 0,-0.741468 0.11595,-0.732871 1.85751,0.137718 1.53119,0.765427 2.64425,0.928551 6.33592,0.928551 2.4631,0 4.47904,0.125292 4.47987,0.278429 0.004,0.57976 -5.86758,16.99472 -7.91385,22.128045 -1.17538,2.948629 -2.13709,5.585442 -2.13709,5.859588 0,0.274146 0.96874,-0.880999 2.15278,-2.566988 4.58974,-6.535575 8.78958,-9.783022 12.69126,-9.813245 2.75108,-0.02128 4.13695,0.82697 4.84219,2.963917 0.51918,1.573163 0.49361,2.614724 -0.28479,11.587101 -0.15935,1.836525 -0.16416,3.839352 -0.0105,4.450734 0.76062,3.030503 4.34731,1.352298 11.19341,-5.237342 4.16584,-4.009806 5.20241,-4.801872 5.82684,-4.452425 0.70642,0.395321 0.69051,0.522553 -0.22683,1.818073 -1.852,2.615362 -7.98902,8.708912 -10.61614,10.540897 -4.28804,2.990215 -6.22802,3.489246 -8.58557,2.208499 z M 116.75771,91.112684 c -1.75225,-1.474418 -2.408,-3.635548 -2.13502,-7.036293 0.24605,-3.065315 0.37054,-3.033401 -2.70332,-0.693037 -6.77708,5.159911 -16.043122,7.146698 -20.183811,4.327727 -2.423427,-1.649866 -3.187285,-3.08472 -3.365907,-6.322648 -0.209741,-3.801975 0.996951,-7.125143 3.664651,-10.092268 2.750151,-3.058829 5.673365,-4.426001 9.463447,-4.426001 5.25809,0 7.67287,1.799555 7.19505,5.361947 -0.52362,3.90392 -5.86266,6.925315 -12.430292,7.034383 l -3.605683,0.05988 -6.1e-5,1.798563 c -2.14e-4,6.349095 8.746526,6.554469 17.821526,0.418459 4.61611,-3.121159 5.69845,-4.336648 7.54103,-8.4687 l 1.69482,-3.800699 -1.61884,-0.302607 c -0.89036,-0.166433 -2.50388,-0.320156 -3.5856,-0.341606 l -1.96677,-0.03899 1.28269,-1.127352 c 1.1941,-1.049495 1.48322,-1.107593 4.18635,-0.841231 l 2.90367,0.286116 0.78613,-1.743327 c 1.13589,-2.518959 2.48379,-3.604476 4.79986,-3.865532 1.09669,-0.123614 1.99399,-0.07646 1.99399,0.104772 0,0.18124 -0.78671,1.507629 -1.74824,2.947536 -0.96154,1.439903 -1.74824,2.763421 -1.74824,2.941147 0,0.177726 2.60597,0.664667 5.79104,1.08209 3.18507,0.417423 6.33191,0.864216 6.99296,0.992869 l 1.20191,0.233919 -0.007,-4.315967 c -0.004,-2.373781 -0.18998,-4.605789 -0.414,-4.960022 -0.76686,-1.212636 2.11753,-1.848794 3.9459,-0.870278 1.12869,0.60406 1.07307,1.332364 -0.44463,5.822337 -0.70951,2.099015 -1.18017,4.102677 -1.04589,4.452587 0.15262,0.397725 -0.0249,0.636198 -0.4736,0.636198 -0.39475,0 -1.18345,0.30515 -1.75266,0.678111 -0.94356,0.618252 -1.64171,0.591897 -7.90832,-0.298542 -6.70158,-0.952245 -6.88833,-0.956217 -7.47132,-0.158937 -1.22764,1.678887 -4.20345,10.097277 -4.42226,12.510241 -0.30683,3.3838 0.0759,4.599845 1.71425,5.447081 1.16711,0.603541 1.6468,0.630411 3.16235,0.177141 1.88217,-0.562925 4.03873,-1.864537 4.95523,-2.990775 0.4648,-0.57118 0.54632,-0.475447 0.54632,0.641591 0,1.663752 -1.59621,3.231721 -4.80766,4.722598 -3.23858,1.503469 -6.03098,1.509741 -7.80437,0.01753 z m -15.5371,-15.191035 c 2.60192,-1.32073 3.67377,-2.741196 3.67377,-4.86866 0,-1.901499 -1.14809,-2.630178 -3.62135,-2.298441 -2.50689,0.336243 -5.073428,2.385932 -6.741358,5.383774 -0.785117,1.411131 -1.429833,2.739627 -1.4327,2.952213 -0.01106,0.818823 5.874474,-0.02823 8.121638,-1.168886 z m 352.57975,10.611058 c -2.24802,-0.905309 -3.06187,-4.681943 -2.16506,-10.047225 0.34152,-2.043255 0.57788,-3.764366 0.52521,-3.824694 -0.0526,-0.06033 -1.40112,1.638407 -2.99661,3.774965 -4.2175,5.647806 -6.6969,7.479747 -10.12318,7.479747 -1.73098,0 -1.70279,0.03816 -1.1149,-1.508154 0.23588,-0.620397 0.62443,-3.191835 0.86346,-5.714304 0.54221,-5.722565 -0.0197,-12.193888 -1.42185,-16.374506 l -1.02416,-3.053624 1.52232,-0.285588 c 0.83728,-0.157075 1.83439,-0.0894 2.21581,0.150375 2.269,1.426345 3.24093,6.529937 3.02743,15.896323 -0.0817,3.585779 -0.0192,6.519434 0.13868,6.519238 0.15804,-1.97e-4 1.22171,-1.032913 2.36375,-2.294923 3.11632,-3.443691 7.01699,-9.611284 7.65637,-12.105978 l 0.56582,-2.207734 h 2.11637 c 1.46446,0 2.19282,0.199072 2.36441,0.646237 0.13636,0.355435 -0.35791,2.666389 -1.09842,5.135454 -3.08634,10.290431 -2.81545,15.197184 0.83898,15.197184 2.80842,0 6.25498,-4.904266 7.86183,-11.186989 1.04589,-4.089508 1.09812,-6.639902 0.1632,-7.974661 -0.87202,-1.244973 -0.68802,-1.429596 1.69208,-1.697868 2.8224,-0.318123 3.54805,0.573099 3.27152,4.01801 -0.49864,6.211993 -6.87438,16.524823 -11.78532,19.062874 -1.71144,0.884517 -3.85775,1.040185 -5.45774,0.395841 z M 68.707231,86.078916 c -4.186776,-0.7485 -5.770603,-2.051266 -5.770603,-4.746558 0,-0.731183 2.083456,-7.339813 4.629903,-14.685837 2.546446,-7.346029 4.527158,-13.624167 4.401578,-13.951424 -0.162814,-0.424285 0.326728,-0.678247 1.706181,-0.885108 2.145444,-0.321728 2.811196,-0.09485 2.811196,0.958001 0,0.38845 -1.800163,5.834627 -4.000357,12.102617 -5.243041,14.936548 -5.32287,15.246235 -4.273852,16.579845 0.464547,0.590573 1.670198,1.25809 2.774631,1.536187 2.466369,0.62104 8.253798,0.632351 10.457485,0.02045 0.923979,-0.256567 1.775787,-0.370653 1.892915,-0.253525 0.37425,0.374245 -0.726075,2.01204 -1.843768,2.744378 -1.309414,0.857961 -9.224232,1.217622 -12.785309,0.580979 z M 482.67774,62.732514 c -0.13531,-0.352646 -0.0636,-1.188432 0.15935,-1.857304 0.34344,-1.03036 0.71927,-1.26104 2.4603,-1.510085 1.13024,-0.161669 3.33555,-0.893202 4.90071,-1.625623 l 2.8457,-1.331673 -0.87849,1.233776 c -1.1253,1.5803 -3.15566,3.121351 -6.03091,4.57742 -2.62078,1.327242 -3.11615,1.400825 -3.45666,0.513489 z"
           id="path901" />
        <path
           style="fill:#131313;stroke-width:0.43706"
           d="m 577.94347,204.963 c -4.93869,-0.97709 -9.20937,-4.26438 -11.20936,-8.62816 -0.84532,-1.84444 -0.96022,-2.95989 -1.0902,-10.58438 -0.13536,-7.94025 -0.097,-8.4557 0.56118,-7.54267 1.03081,1.42996 2.37245,2.0129 4.59516,1.99662 1.87892,-0.0138 1.89116,-0.006 0.27365,0.17308 l -1.69313,0.18747 0.18684,6.211 c 0.16058,5.33793 0.32719,6.50089 1.18522,8.27335 1.19571,2.46996 3.78004,4.79461 6.10437,5.49101 2.43552,0.7297 194.80229,0.7297 197.2378,0 2.31922,-0.69486 4.90207,-3.01456 6.1278,-5.50351 l 1.0218,-2.07487 v -41.95775 c 0,-47.40988 0.2181,-44.3874 -3.44696,-47.76575 -3.44434,-3.17488 4.98681,-2.93319 -102.32154,-2.93319 -106.80726,0 -98.84844,-0.21688 -102.18063,2.78437 -2.85177,2.56854 -3.49032,4.55482 -3.72183,11.57724 -0.14912,4.52426 -0.0627,6.14215 0.34161,6.392 0.32989,0.20388 0.0632,0.33453 -0.68273,0.33453 -0.82884,0 -1.63312,0.45795 -2.49151,1.41863 l -1.26756,1.41863 0.15171,-8.46622 c 0.14401,-8.03759 0.209,-8.58793 1.28417,-10.87005 1.44378,-3.0646 4.32108,-5.94242 7.3874,-7.388795 2.39452,-1.129485 2.45798,-1.134725 16.38066,-1.352408 l 13.97678,-0.218529 2.27879,-25.786534 c 2.45619,-27.793824 2.67463,-32.197885 1.71126,-34.503462 -0.88124,-2.10912 -3.75229,-4.814478 -5.98938,-5.643684 -1.40768,-0.521788 -27.13408,-2.914266 -96.97652,-9.018542 -52.28329,-4.569593 -95.84724,-8.306281 -96.80877,-8.303751 -3.98501,0.01049 -8.82523,3.762565 -9.75368,7.560923 -0.24628,1.00756 -0.57129,3.405342 -0.72225,5.328406 -0.15095,1.923064 -0.37763,4.216826 -0.50374,5.097251 -0.1864,1.301402 -0.0803,1.635478 0.56754,1.786346 0.43825,0.102066 0.0347,0.177919 -0.89686,0.168562 -1.37217,-0.01378 -1.93575,0.253911 -2.96891,1.410221 l -1.27523,1.427233 0.23816,-2.103917 c 0.13098,-1.157155 0.4424,-4.464041 0.69203,-7.348636 0.613,-7.083353 1.36491,-9.364297 4.05846,-12.311468 4.6357,-5.0721874 7.57297,-5.5801542 23.89481,-4.1323163 5.649,0.5010973 10.99574,0.9542703 11.88164,1.0070493 0.88591,0.05278 1.52728,0.231013 1.42526,0.396074 -0.58169,0.941195 1.84094,1.465652 10.19923,2.207955 4.98017,0.442291 9.30068,0.714113 9.60116,0.604049 0.30048,-0.110064 0.54632,-0.482891 0.54632,-0.828506 0,-0.377207 0.30573,-0.55482 0.76486,-0.44434 0.42067,0.101228 33.21655,3.023596 72.87974,6.494152 53.85802,4.712616 72.7172,6.505077 74.49411,7.080256 4.46854,1.446466 8.6867,6.632221 9.41772,11.578087 0.22491,1.521792 -3.29875,45.611861 -4.36867,54.662708 l -0.24419,2.065894 7.55296,0.14763 7.55301,0.14763 -8.74552,-0.0096 c -4.81007,-0.0053 -8.98945,0.141136 -9.28753,0.325365 -0.94964,0.586906 -0.6135,2.026061 0.57911,2.479493 0.6166,0.234435 4.9435,0.426243 9.61532,0.426243 7.92748,0 8.55287,-0.05865 9.37331,-0.879089 0.87474,-0.874736 1.24589,-0.878526 74.84652,-0.764855 l 73.9674,0.114247 2.40383,1.133878 c 3.06545,1.44596 5.94284,4.32333 7.38881,7.38879 l 1.13386,2.40382 v 43.48746 43.48746 l -0.94444,2.04355 c -2.07691,4.49397 -6.26845,7.69855 -11.28183,8.62532 -3.09023,0.57127 -192.1242,0.59163 -195.0084,0.021 z m -362.08732,-7.1412 c -3.7652,-1.3455 -6.92033,-4.25263 -8.68131,-7.99894 -0.84399,-1.79552 -2.15804,-11.28314 -2.1851,-15.77684 l -0.009,-1.43353 1.2739,0.94184 c 0.70065,0.51801 1.83154,0.94572 2.5131,0.95046 0.68155,0.005 1.03375,0.0814 0.78266,0.17039 -0.31436,0.11138 -0.28384,2.02617 0.098,6.1484 0.64387,6.95115 1.48497,9.10097 4.44359,11.35758 3.64741,2.78197 -3.86683,3.22462 101.24639,-5.9642 52.64387,-4.60203 96.34965,-8.4789 97.12397,-8.61527 2.08871,-0.36783 5.16688,-2.4947 6.47805,-4.47602 2.14976,-3.2485 2.14962,-3.58108 -0.0118,-28.64774 -1.09994,-12.7566 -2.10128,-23.83301 -2.2252,-24.61425 -0.19529,-1.23122 -0.39733,-1.42045 -1.51668,-1.42045 -0.71025,0 -1.29137,0.21073 -1.29137,0.46828 0,0.25869 -0.28135,0.18694 -0.6286,-0.16031 -0.41763,-0.41764 -2.14108,-0.73022 -5.13545,-0.93143 -6.14829,-0.41313 -9.82934,-1.0216 -12.00644,-1.98464 -4.03725,-1.78587 -7.59922,-6.45719 -8.28181,-10.86111 -0.16087,-1.03792 -0.0343,-5.220531 0.28134,-9.294694 l 0.57383,-7.407567 1.26683,1.536882 c 0.69675,0.845283 1.56587,1.536878 1.93138,1.536878 0.57447,0 0.61459,0.577692 0.29597,4.261334 -0.63226,7.309847 -0.44596,9.798437 0.90627,12.105837 1.35287,2.30851 4.02576,4.42624 6.33179,5.0167 0.86439,0.22132 37.95686,3.56655 82.4277,7.43385 44.47085,3.8673 81.49529,7.13639 82.27653,7.26465 1.35506,0.22248 1.42045,0.32281 1.42045,2.18017 0,1.27112 -0.18964,1.94377 -0.54633,1.93775 -0.30047,-0.005 -32.80134,-2.83888 -72.22415,-6.29737 -39.4228,-3.45848 -71.75252,-6.21506 -71.84381,-6.12574 -0.0913,0.0893 0.7679,10.83435 1.90931,23.87784 1.14142,13.04348 1.97547,24.81642 1.85345,26.16209 -0.49731,5.48437 -5.06383,10.7137 -10.63788,12.1819 -2.107,0.55498 -190.11557,17.08978 -193.99723,17.06148 -1.44737,-0.0105 -3.34311,-0.27345 -4.21275,-0.58421 z m 561.67344,-47.03614 c 0,-19.23063 0.15005,-29.28301 0.43706,-29.28301 0.28702,0 0.43706,10.05238 0.43706,29.28301 0,19.23064 -0.15004,29.28302 -0.43706,29.28302 -0.28701,0 -0.43706,-10.05238 -0.43706,-29.28302 z m -566.94866,23.30268 c 0.3155,-0.12625 0.69247,-0.11073 0.8377,0.0345 0.14523,0.14523 -0.11291,0.24853 -0.57364,0.22956 -0.50915,-0.021 -0.61271,-0.12454 -0.26406,-0.26406 z m 3.14137,-0.96103 c 0,-0.24039 0.19668,-0.55862 0.43706,-0.70718 0.24038,-0.14857 0.43706,-0.0734 0.43706,0.16694 0,0.24039 -0.19668,0.55861 -0.43706,0.70718 -0.24038,0.14856 -0.43706,0.0734 -0.43706,-0.16694 z m 1.38019,-4.85925 c 0,-0.60096 0.0992,-0.8468 0.22045,-0.54632 0.12124,0.30047 0.12124,0.79217 0,1.09265 -0.12125,0.30047 -0.22045,0.0546 -0.22045,-0.54633 z m -10.961,-0.69201 c 0.021,-0.50915 0.12453,-0.61271 0.26405,-0.26406 0.12625,0.3155 0.11073,0.69247 -0.0345,0.8377 -0.14523,0.14523 -0.24853,-0.11291 -0.22956,-0.57364 z m 10.9265,-1.74824 c 0.021,-0.50915 0.12453,-0.61271 0.26405,-0.26406 0.12625,0.3155 0.11073,0.69247 -0.0345,0.8377 -0.14524,0.14523 -0.24853,-0.11291 -0.22956,-0.57364 z m -11.36356,-3.05942 c 0.021,-0.50915 0.12453,-0.61271 0.26405,-0.26406 0.12626,0.3155 0.11073,0.69247 -0.0345,0.8377 -0.14523,0.14523 -0.24853,-0.11291 -0.22956,-0.57364 z m 10.48944,-4.3706 c 0.021,-0.50915 0.12453,-0.61271 0.26405,-0.26406 0.12625,0.3155 0.11073,0.69247 -0.0345,0.8377 -0.14524,0.14523 -0.24853,-0.11291 -0.22956,-0.57364 z m 0,-2.62236 c 0.021,-0.50915 0.12453,-0.61271 0.26405,-0.26406 0.12625,0.31551 0.11073,0.69247 -0.0345,0.8377 -0.14524,0.14524 -0.24853,-0.11291 -0.22956,-0.57364 z m 201.88717,-0.18211 c 0,-0.81584 0.11655,-0.93239 0.52447,-0.52447 0.40792,0.40792 0.40792,0.64102 0,1.04895 -0.40792,0.40792 -0.52447,0.29137 -0.52447,-0.52448 z m -202.28973,-2.1853 c 0,-0.60095 0.0992,-0.8468 0.22045,-0.54632 0.12124,0.30048 0.12124,0.79217 0,1.09265 -0.12125,0.30048 -0.22045,0.0546 -0.22045,-0.54633 z m -10.961,-0.69201 c 0.021,-0.50915 0.12453,-0.61271 0.26405,-0.26405 0.12626,0.3155 0.11073,0.69246 -0.0345,0.8377 -0.14523,0.14523 -0.24853,-0.11291 -0.22955,-0.57365 z m 213.13236,-1.32028 c -0.17528,-0.17528 -0.31869,-0.62026 -0.31869,-0.98885 0,-0.49195 0.1293,-0.54086 0.48623,-0.18393 0.26742,0.26742 0.41084,0.71241 0.31869,0.98885 -0.0922,0.27644 -0.31095,0.3592 -0.48623,0.18393 z m 0.15288,-2.61326 c 0.021,-0.50915 0.12453,-0.61271 0.26405,-0.26405 0.12625,0.3155 0.11073,0.69247 -0.0345,0.8377 -0.14523,0.14523 -0.24853,-0.11291 -0.22956,-0.57365 z m -202.7958,-0.43705 c 0.021,-0.50916 0.12453,-0.61272 0.26405,-0.26406 0.12625,0.3155 0.11073,0.69247 -0.0345,0.8377 -0.14523,0.14523 -0.24853,-0.11291 -0.22956,-0.57364 z m 201.98591,-1.88195 c -0.0331,-1.39117 0.086,-1.78669 0.43349,-1.43924 0.33326,0.33326 0.34715,0.91729 0.0456,1.91836 l -0.43349,1.43925 z m -201.98591,-0.74041 c 0.021,-0.50916 0.12453,-0.61272 0.26405,-0.26406 0.12625,0.3155 0.11073,0.69247 -0.0345,0.8377 -0.14523,0.14523 -0.24853,-0.11291 -0.22956,-0.57364 z M 121.50266,132.42185 C 17.761451,115.96584 23.595608,116.93286 21.449099,115.83779 c -4.116306,-2.09998 -7.078808,-6.08125 -7.922928,-10.64751 -0.340377,-1.84127 -0.276179,-3.49287 0.27741,-7.136832 0.39615,-2.607639 0.971043,-6.412914 1.277539,-8.456169 0.306496,-2.043255 0.578814,-3.148199 0.605151,-2.455437 0.03205,0.843167 0.572412,1.754266 1.634497,2.755942 l 1.586611,1.496366 -0.715001,4.674076 c -0.39325,2.570747 -0.713871,5.668024 -0.712491,6.882834 0.0049,4.26863 3.25934,8.66269 7.22761,9.75838 0.782674,0.2161 40.828541,6.63664 88.990813,14.26786 48.16228,7.63122 87.69044,13.99569 87.84036,14.14326 0.14991,0.14757 0.37705,1.10419 0.50473,2.12582 0.19279,1.54245 0.10949,1.84912 -0.4911,1.80809 -0.3978,-0.0272 -36.42014,-5.71186 -80.04964,-12.63262 z m 91.38003,10.67885 c 0.021,-0.50916 0.12453,-0.61272 0.26405,-0.26406 0.12625,0.3155 0.11073,0.69247 -0.0345,0.8377 -0.14523,0.14523 -0.24853,-0.11291 -0.22956,-0.57364 z m 0,-2.1853 c 0.021,-0.50916 0.12453,-0.61272 0.26405,-0.26406 0.12625,0.3155 0.11073,0.69247 -0.0345,0.8377 -0.14523,0.14523 -0.24853,-0.11291 -0.22956,-0.57364 z m 202.20586,0.42795 c -0.17528,-0.17528 -0.31869,-0.62026 -0.31869,-0.98885 0,-0.49195 0.1293,-0.54086 0.48623,-0.18393 0.26742,0.26743 0.41084,0.71241 0.31869,0.98885 -0.0922,0.27644 -0.31095,0.35921 -0.48623,0.18393 z m 0.15288,-2.61325 c 0.021,-0.50916 0.12453,-0.61272 0.26405,-0.26406 0.12626,0.3155 0.11073,0.69247 -0.0345,0.8377 -0.14523,0.14523 -0.24853,-0.11291 -0.22956,-0.57364 z m -202.7958,-0.43706 c 0.021,-0.50916 0.12453,-0.61272 0.26405,-0.26406 0.12625,0.3155 0.11073,0.69247 -0.0345,0.8377 -0.14523,0.14523 -0.24853,-0.11291 -0.22956,-0.57364 z m -10.9265,-0.43706 c 0.021,-0.50916 0.12453,-0.61272 0.26405,-0.26406 0.12626,0.3155 0.11073,0.69247 -0.0345,0.8377 -0.14523,0.14523 -0.24853,-0.11291 -0.22955,-0.57364 z m 213.14147,-1.3084 c -0.18029,-0.18182 -0.3278,-0.73049 -0.3278,-1.21927 0,-0.64325 0.13202,-0.75666 0.47805,-0.41064 0.26293,0.26293 0.41043,0.8116 0.32779,1.21927 -0.0826,0.40767 -0.29776,0.59246 -0.47804,0.41064 z m -202.61753,-3.24431 c 0,-0.60096 0.0992,-0.8468 0.22045,-0.54633 0.12124,0.30048 0.12124,0.79217 0,1.09265 -0.12125,0.30048 -0.22045,0.0546 -0.22045,-0.54632 z m -10.961,-0.69201 c 0.021,-0.50915 0.12453,-0.61272 0.26405,-0.26406 0.12626,0.3155 0.11073,0.69247 -0.0345,0.8377 -0.14523,0.14523 -0.24853,-0.11291 -0.22955,-0.57364 z m 212.84818,0 c 0.021,-0.50915 0.12453,-0.61272 0.26405,-0.26406 0.12626,0.3155 0.11073,0.69247 -0.0345,0.8377 -0.14523,0.14523 -0.24853,-0.11291 -0.22955,-0.57364 z m -201.92168,-1.74824 c 0.021,-0.50915 0.12453,-0.61272 0.26405,-0.26406 0.12625,0.3155 0.11073,0.69247 -0.0345,0.8377 -0.14523,0.14523 -0.24853,-0.11291 -0.22956,-0.57364 z m 202.20586,0.42795 c -0.17528,-0.17528 -0.31869,-0.62026 -0.31869,-0.98885 0,-0.49195 0.1293,-0.54086 0.48623,-0.18393 0.26742,0.26743 0.41084,0.71241 0.31869,0.98885 -0.0922,0.27644 -0.31095,0.35921 -0.48623,0.18393 z M 200.64501,127.8036 c 0.021,-0.50915 0.12453,-0.61271 0.26405,-0.26406 0.12626,0.3155 0.11073,0.69247 -0.0345,0.8377 -0.14523,0.14523 -0.24853,-0.11291 -0.22955,-0.57364 z m 212.97726,-1.6974 c -0.13532,-0.35265 -0.0605,-1.18852 0.16637,-1.85751 0.38528,-1.13628 0.41283,-1.09409 0.41869,0.64118 0.007,1.93766 -0.16856,2.30171 -0.58506,1.21633 z m 162.18621,-2.01027 c -0.15848,-0.25637 -0.19436,-0.55987 -0.0798,-0.67444 0.1146,-0.11456 0.32478,0.0952 0.46713,0.46614 0.29554,0.77015 0.0437,0.90561 -0.38732,0.2083 z M 211.13445,123.433 c 0.021,-0.50915 0.12453,-0.61271 0.26405,-0.26406 0.12625,0.3155 0.11073,0.69247 -0.0345,0.8377 -0.14523,0.14523 -0.24853,-0.11291 -0.22956,-0.57364 z m -10.9265,-0.87412 c 0.021,-0.50915 0.12453,-0.61271 0.26405,-0.26406 0.12626,0.3155 0.11073,0.69247 -0.0345,0.8377 -0.14523,0.14523 -0.24853,-0.11291 -0.22955,-0.57364 z m 212.84818,0 c 0.021,-0.50915 0.12453,-0.61271 0.26405,-0.26406 0.12626,0.3155 0.11073,0.69247 -0.0345,0.8377 -0.14523,0.14523 -0.24853,-0.11291 -0.22955,-0.57364 z m -201.92168,-1.74824 c 0.021,-0.50915 0.12453,-0.61271 0.26405,-0.26406 0.12625,0.3155 0.11073,0.69247 -0.0345,0.8377 -0.14523,0.14523 -0.24853,-0.11291 -0.22956,-0.57364 z m 202.20586,0.42795 c -0.17528,-0.17528 -0.31869,-0.62025 -0.31869,-0.98884 0,-0.49196 0.1293,-0.54087 0.48623,-0.18393 0.26742,0.26742 0.41084,0.7124 0.31869,0.98885 -0.0922,0.27644 -0.31095,0.3592 -0.48623,0.18392 z M 199.98419,116.9778 c -0.59912,-3.88731 -1.15736,-13.20259 -0.88707,-14.8024 0.83783,-4.959087 5.03281,-10.030079 9.4456,-11.418072 2.26542,-0.712561 19.37002,-2.618439 22.66198,-2.525109 0.84134,0.02386 1.77095,-0.110537 2.06581,-0.298648 0.76019,-0.484975 5.94313,-33.450939 5.60269,-35.635757 -0.56013,-3.594639 -3.70581,-7.512168 -6.84652,-8.526436 C 229.67847,43.013041 42.422794,13.484052 39.9356,13.479876 c -3.609595,-0.0061 -7.12287,2.258778 -8.896321,5.735029 -0.476058,0.933151 -1.293457,4.268589 -1.816441,7.412083 -0.755004,4.538092 -1.094332,5.715781 -1.647267,5.717078 -0.383012,8.99e-4 -1.335586,0.391362 -2.116831,0.867696 -0.984978,0.600553 -1.420445,0.695903 -1.420445,0.311021 0,-0.305272 0.495969,-3.577214 1.102154,-7.270981 1.333731,-8.127053 2.611301,-10.974375 6.109013,-13.615174 5.169839,-3.9032661 6.570776,-3.9994538 22.131017,-1.519501 13.585129,2.165164 14.363808,2.245655 14.363808,1.484767 0,-0.280447 0.126367,-0.383538 0.280811,-0.229092 0.154448,0.154446 0.06736,0.538006 -0.19353,0.852356 -1.037532,1.250153 0.345286,1.715369 9.526604,3.204993 8.288631,1.344791 9.385477,1.43855 10.027872,0.857191 0.644043,-0.582851 8.231534,0.536978 70.849526,10.456601 38.57053,6.110146 71.19552,11.338044 72.49999,11.61755 5.16918,1.107597 8.62433,3.669517 10.84259,8.039558 1.89494,3.733095 1.80093,6.035273 -0.94608,23.170141 -1.34759,8.405715 -2.64329,15.476252 -2.87935,15.712303 -0.60118,0.60118 -0.53446,1.8082 0.13045,2.360028 0.39775,0.330106 3.25394,0.219377 9.87441,-0.382821 5.12312,-0.465998 9.4932,-0.957542 9.71127,-1.092318 0.21808,-0.13478 0.3965,-0.483663 0.3965,-0.775296 0,-0.38776 17.6987,-2.07985 65.86489,-6.297045 36.22569,-3.171744 65.93866,-5.693029 66.02883,-5.602859 0.0902,0.09017 0.0354,1.020915 -0.12163,2.06832 l -0.28558,1.904375 -89.01669,7.773687 c -86.05696,7.515219 -89.09238,7.810033 -91.29287,8.866796 -2.30514,1.10702 -4.53764,3.440409 -5.35928,5.601488 -0.50635,1.33179 -0.5424,6.64219 -0.0796,11.72581 0.24658,2.70853 0.18982,3.38721 -0.28325,3.38721 -0.32538,0 -1.16139,0.56979 -1.85779,1.2662 l -1.2662,1.26619 z m 8.81787,-0.24522 c -1.66562,-1.06779 -1.87109,-1.3285 -0.83308,-1.05705 0.48898,0.12787 1.22728,0.60624 1.64068,1.06303 0.90862,1.00401 0.76623,1.00296 -0.8076,-0.006 z M 600.95739,95.112114 c 0,-0.360575 0.19667,-0.777141 0.43706,-0.925706 0.24038,-0.148565 0.43706,0.02491 0.43706,0.385474 0,0.360574 -0.19668,0.77714 -0.43706,0.925706 -0.24039,0.148565 -0.43706,-0.02491 -0.43706,-0.385474 z m 0.0345,-2.273306 c 0.021,-0.509153 0.12457,-0.612714 0.26408,-0.264058 0.12626,0.3155 0.11075,0.692464 -0.0345,0.837699 -0.14524,0.145231 -0.24856,-0.11291 -0.22959,-0.573641 z m 0.40254,-2.778674 c 0,-0.494953 0.19667,-0.899915 0.43706,-0.899915 0.24038,0 0.43706,0.283407 0.43706,0.629795 0,0.346387 -0.19668,0.751349 -0.43706,0.899915 -0.24039,0.148565 -0.43706,-0.134842 -0.43706,-0.629795 z M 26.2581,87.157029 c 0.02097,-0.509153 0.124536,-0.612714 0.264057,-0.264058 0.126254,0.3155 0.110726,0.692464 -0.03451,0.837699 -0.145232,0.145231 -0.24853,-0.11291 -0.229553,-0.573641 z m 576.04495,-0.43706 c 0.021,-0.509152 0.12456,-0.612714 0.26407,-0.264058 0.12627,0.3155 0.11075,0.692465 -0.0345,0.8377 -0.14523,0.14523 -0.24855,-0.11291 -0.22958,-0.573642 z M 230.7178,86.647125 c -0.26046,-1.713275 -0.29841,-2.788504 -0.0911,-2.581193 0.31958,0.319578 0.63197,2.908988 0.35094,2.908988 -0.1155,0 -0.23242,-0.147508 -0.25983,-0.327795 z m 10.89439,-0.844885 c 0.3155,-0.126254 0.69246,-0.110729 0.8377,0.03448 0.14523,0.14523 -0.11291,0.24853 -0.57365,0.229552 -0.50915,-0.02098 -0.61271,-0.124535 -0.26405,-0.264054 z m 2.62236,-0.43706 c 0.3155,-0.126254 0.69246,-0.110729 0.83769,0.03448 0.14524,0.145231 -0.11291,0.24853 -0.57364,0.229553 -0.50915,-0.02098 -0.61271,-0.124536 -0.26405,-0.264055 z m 2.62235,0 c 0.31551,-0.126254 0.69247,-0.110729 0.8377,0.03448 0.14523,0.145231 -0.11291,0.24853 -0.57364,0.229553 -0.50915,-0.02098 -0.61271,-0.124536 -0.26406,-0.264055 z m 354.97461,-0.305444 c 0,-0.360574 0.19667,-0.77714 0.43706,-0.925706 0.24038,-0.148565 0.43706,0.02491 0.43706,0.385474 0,0.360574 -0.19668,0.777141 -0.43706,0.925706 -0.24039,0.148565 -0.43706,-0.02491 -0.43706,-0.385474 z M 251.66456,84.92812 c 0.3155,-0.126253 0.69247,-0.110729 0.8377,0.03448 0.14523,0.145231 -0.11291,0.24853 -0.57364,0.229553 -0.50915,-0.02098 -0.61271,-0.124536 -0.26406,-0.264054 z m 148.27977,-0.39345 c 0.021,-0.509153 0.12454,-0.612714 0.26405,-0.264059 0.12626,0.315501 0.11073,0.692465 -0.0345,0.8377 -0.14523,0.145231 -0.24853,-0.11291 -0.22955,-0.573641 z M 254.28692,84.49105 c 0.3155,-0.126253 0.69247,-0.110729 0.8377,0.03448 0.14523,0.145231 -0.11291,0.24853 -0.57364,0.229553 -0.50915,-0.02098 -0.61271,-0.124536 -0.26406,-0.264054 z m 134.73091,-1.704629 c 0.021,-0.509153 0.12454,-0.612715 0.26406,-0.264059 0.12625,0.315501 0.11073,0.692465 -0.0345,0.8377 -0.14523,0.14523 -0.24853,-0.11291 -0.22955,-0.573641 z m 212.84816,0 c 0.021,-0.509153 0.12456,-0.612715 0.26407,-0.264059 0.12627,0.315501 0.11075,0.692465 -0.0345,0.8377 -0.14523,0.14523 -0.24855,-0.11291 -0.22958,-0.573641 z m -370.87982,-0.1821 c 0.14856,-0.240383 0.35685,-0.43706 0.46285,-0.43706 0.10601,0 0.19274,0.196677 0.19274,0.43706 0,0.240383 -0.20829,0.43706 -0.46286,0.43706 -0.25457,0 -0.3413,-0.196677 -0.19273,-0.43706 z M 399.94433,82.34937 c 0.021,-0.509152 0.12454,-0.612714 0.26405,-0.264058 0.12626,0.3155 0.11073,0.692465 -0.0345,0.8377 -0.14523,0.14523 -0.24853,-0.11291 -0.22955,-0.573642 z m 202.32424,-2.341613 c 0,-0.494953 0.19667,-0.899916 0.43706,-0.899916 0.24038,0 0.43706,0.283408 0.43706,0.629795 0,0.346387 -0.19668,0.75135 -0.43706,0.899915 -0.24039,0.148565 -0.43706,-0.134842 -0.43706,-0.629794 z m -371.06387,-0.0258 c 0,-0.240383 0.19667,-0.43706 0.43706,-0.43706 0.24038,0 0.43706,0.196677 0.43706,0.43706 0,0.240383 -0.19668,0.43706 -0.43706,0.43706 -0.24039,0 -0.43706,-0.196677 -0.43706,-0.43706 z m 169.17669,-0.25495 c 0.021,-0.509153 0.12454,-0.612714 0.26405,-0.264058 0.12626,0.3155 0.11073,0.692464 -0.0345,0.837699 -0.14523,0.145231 -0.24853,-0.11291 -0.22955,-0.573641 z m 0,-2.622359 c 0.021,-0.509153 0.12454,-0.612715 0.26405,-0.264059 0.12626,0.315501 0.11073,0.692465 -0.0345,0.8377 -0.14523,0.14523 -0.24853,-0.11291 -0.22955,-0.573641 z m 202.32424,-2.123084 c 0,-0.346388 0.19667,-0.75135 0.43706,-0.899915 0.24038,-0.148566 0.43706,0.134841 0.43706,0.629794 0,0.494953 -0.19668,0.899915 -0.43706,0.899915 -0.24039,0 -0.43706,-0.283407 -0.43706,-0.629794 z M 232.29735,74.300183 c 0.14856,-0.240383 0.35685,-0.43706 0.46285,-0.43706 0.10601,0 0.19274,0.196677 0.19274,0.43706 0,0.240383 -0.20829,0.437059 -0.46286,0.437059 -0.25457,0 -0.3413,-0.196676 -0.19273,-0.437059 z m 157.5946,-1.56613 c 0.021,-0.509153 0.12454,-0.612715 0.26406,-0.264059 0.12625,0.315501 0.11073,0.692465 -0.0345,0.8377 -0.14523,0.14523 -0.24853,-0.11291 -0.22955,-0.573641 z m 213.72228,-0.87412 c 0.021,-0.509153 0.12456,-0.612714 0.26407,-0.264059 0.12627,0.315501 0.11075,0.692465 -0.0345,0.8377 -0.14523,0.145231 -0.24855,-0.11291 -0.22958,-0.573641 z m -370.87982,-0.18211 c 0.14856,-0.240383 0.35685,-0.43706 0.46285,-0.43706 0.10601,0 0.19274,0.196677 0.19274,0.43706 0,0.240383 -0.20829,0.43706 -0.46286,0.43706 -0.25457,0 -0.3413,-0.196677 -0.19273,-0.43706 z M 603.14269,70.1997 c 0,-0.360575 0.19667,-0.777141 0.43706,-0.925706 0.24038,-0.148566 0.43706,0.02491 0.43706,0.385473 0,0.360575 -0.19668,0.777141 -0.43706,0.925706 -0.24039,0.148566 -0.43706,-0.02491 -0.43706,-0.385473 z M 233.21823,69.675307 c -0.34642,-0.902735 -0.33493,-1.056903 0.0788,-1.056903 0.18922,0 0.37368,0.393354 0.4099,0.87412 0.0791,1.050635 -0.12617,1.127431 -0.48866,0.182783 z m 168.03728,-8.75e-4 c 0.021,-0.509153 0.12454,-0.612714 0.26405,-0.264058 0.12626,0.3155 0.11073,0.692465 -0.0345,0.8377 -0.14523,0.14523 -0.24853,-0.112911 -0.22955,-0.573642 z m 201.92166,-1.748239 c 0.021,-0.509153 0.12456,-0.612714 0.26407,-0.264059 0.12627,0.315501 0.11075,0.692465 -0.0345,0.8377 -0.14523,0.145231 -0.24855,-0.11291 -0.22958,-0.573641 z M 401.29001,67.307224 c 0,-0.600957 0.0992,-0.846803 0.22045,-0.546325 0.12125,0.300479 0.12125,0.792171 0,1.09265 -0.12124,0.300479 -0.22045,0.05463 -0.22045,-0.546325 z M 233.53568,65.796741 c 0,-0.350002 0.1639,-0.535071 0.36422,-0.411265 0.20032,0.123802 0.36422,0.410168 0.36422,0.636364 0,0.226196 -0.1639,0.411264 -0.36422,0.411264 -0.20032,0 -0.36422,-0.286366 -0.36422,-0.636363 z M 603.57975,64.92919 c 0,-0.346387 0.19667,-0.75135 0.43706,-0.899915 0.24038,-0.148565 0.43706,0.134842 0.43706,0.629795 0,0.494952 -0.19668,0.899915 -0.43706,0.899915 -0.24039,0 -0.43706,-0.283407 -0.43706,-0.629795 z M 390.76607,62.681675 c 0.021,-0.509153 0.12454,-0.612714 0.26406,-0.264058 0.12625,0.3155 0.11073,0.692464 -0.0345,0.837699 -0.14523,0.145231 -0.24853,-0.11291 -0.22955,-0.573641 z m 213.72228,-0.87412 c 0.021,-0.509153 0.12456,-0.612714 0.26407,-0.264058 0.12627,0.3155 0.11075,0.692464 -0.0345,0.837699 -0.14523,0.145231 -0.24855,-0.11291 -0.22958,-0.573641 z m -0.47154,-1.660233 c 0,-0.360574 0.19667,-0.77714 0.43706,-0.925706 0.24038,-0.148565 0.43706,0.02491 0.43706,0.385474 0,0.360574 -0.19668,0.77714 -0.43706,0.925706 -0.24039,0.148565 -0.43706,-0.02491 -0.43706,-0.385474 z M 402.12963,59.622256 c 0.021,-0.509153 0.12454,-0.612714 0.26405,-0.264059 0.12626,0.315501 0.11073,0.692465 -0.0345,0.8377 -0.14523,0.145231 -0.24853,-0.11291 -0.22955,-0.573641 z m -10.9265,-1.74824 c 0.021,-0.509153 0.12454,-0.612714 0.26406,-0.264058 0.12625,0.3155 0.11073,0.692464 -0.0345,0.837699 -0.14523,0.145231 -0.24853,-0.11291 -0.22955,-0.573641 z m 212.84816,0 c 0.021,-0.509153 0.12456,-0.612714 0.26407,-0.264058 0.12627,0.3155 0.11075,0.692464 -0.0345,0.837699 -0.14523,0.145231 -0.24855,-0.11291 -0.22958,-0.573641 z M 402.16413,57.254847 c 0,-0.600958 0.0992,-0.846804 0.22045,-0.546325 0.12124,0.300478 0.12124,0.792171 0,1.092649 -0.12124,0.300479 -0.22045,0.05463 -0.22045,-0.546324 z m 202.28974,-2.159505 c 0,-0.494952 0.19667,-0.899915 0.43706,-0.899915 0.24038,0 0.43706,0.283407 0.43706,0.629795 0,0.346387 -0.19668,0.75135 -0.43706,0.899915 -0.24039,0.148565 -0.43706,-0.134842 -0.43706,-0.629795 z M 391.64019,52.629297 c 0.021,-0.509152 0.12454,-0.612714 0.26406,-0.264058 0.12625,0.3155 0.11073,0.692465 -0.0345,0.8377 -0.14523,0.14523 -0.24853,-0.11291 -0.22955,-0.573642 z m 10.9265,-0.437059 c 0.021,-0.509153 0.12454,-0.612715 0.26405,-0.264059 0.12626,0.315501 0.11073,0.692465 -0.0345,0.8377 -0.14523,0.14523 -0.24853,-0.11291 -0.22955,-0.573641 z M 605.397,51.573068 c 0,-0.600957 0.0992,-0.846804 0.22045,-0.546325 0.12124,0.300479 0.12124,0.792171 0,1.09265 -0.12124,0.300478 -0.22045,0.05463 -0.22045,-0.546325 z m -202.39325,-2.00319 c 0.021,-0.509153 0.12454,-0.612714 0.26405,-0.264058 0.12626,0.3155 0.11073,0.692464 -0.0345,0.837699 -0.14523,0.145231 -0.24853,-0.11291 -0.22955,-0.573641 z m -10.9265,-1.748239 c 0.021,-0.509153 0.12454,-0.612715 0.26406,-0.264059 0.12625,0.315501 0.11073,0.692465 -0.0345,0.8377 -0.14523,0.14523 -0.24853,-0.11291 -0.22955,-0.573641 z m 10.9265,-0.43706 c 0.021,-0.509153 0.12454,-0.612715 0.26405,-0.264059 0.12626,0.315501 0.11073,0.692465 -0.0345,0.8377 -0.14523,0.14523 -0.24853,-0.11291 -0.22955,-0.573641 z m 0.43706,-2.62236 c 0.021,-0.509153 0.12454,-0.612714 0.26405,-0.264058 0.12626,0.3155 0.11073,0.692464 -0.0345,0.837699 -0.14523,0.145231 -0.24853,-0.11291 -0.22955,-0.573641 z m 0,-2.62236 c 0.021,-0.50915 0.12454,-0.612715 0.26405,-0.264058 0.12626,0.315503 0.11073,0.692467 -0.0345,0.837699 -0.14523,0.145231 -0.24853,-0.112908 -0.22955,-0.573641 z M 392.95137,37.76926 c 0.021,-0.50915 0.12454,-0.612715 0.26406,-0.264058 0.12625,0.315503 0.11072,0.692467 -0.0345,0.837699 -0.14523,0.145231 -0.24853,-0.112908 -0.22955,-0.573641 z m 10.06175,-2.93361 c -0.55285,-0.920583 -0.54353,-0.929897 0.20906,-0.20906 0.43323,0.414947 0.6936,0.848526 0.57862,0.963509 -0.11498,0.114982 -0.46943,-0.22452 -0.78768,-0.754449 z M 31.412565,33.363527 c -0.543915,-0.65935 -0.508155,-0.678291 0.383544,-0.203153 1.01702,0.541915 1.267443,0.930298 0.599841,0.930298 -0.21095,0 -0.653473,-0.327215 -0.983385,-0.727145 z m 55.65439,-17.891982 c -0.309954,-0.33633 -0.370731,-0.611508 -0.135056,-0.611508 0.453861,0 1.110884,0.831381 0.851647,1.077646 -0.08417,0.07995 -0.406632,-0.129809 -0.716591,-0.466138 z M 450.06245,10.637041 c 0.30048,-0.121246 0.79217,-0.121246 1.09265,0 0.30048,0.121246 0.0546,0.220447 -0.54633,0.220447 -0.60095,0 -0.8468,-0.0992 -0.54632,-0.220447 z m 2.64968,-0.0091 c 0.31551,-0.126254 0.69247,-0.110726 0.83771,0.03451 0.14523,0.145231 -0.11294,0.24853 -0.57364,0.229552 -0.50918,-0.02097 -0.61272,-0.124536 -0.26407,-0.264057 z m -7.43002,-0.43706 c 0.31551,-0.126254 0.69247,-0.110726 0.83771,0.03451 0.14523,0.145232 -0.11294,0.24853 -0.57364,0.229553 -0.50918,-0.02097 -0.61272,-0.124537 -0.26407,-0.264058 z m -4.80766,-0.4370598 c 0.31551,-0.1262539 0.69248,-0.1107265 0.83771,0.034506 0.14524,0.1452315 -0.11294,0.2485298 -0.57364,0.2295528 -0.50918,-0.02097 -0.61271,-0.1245365 -0.26407,-0.2640574 z m 2.1853,0 c 0.31551,-0.1262539 0.69248,-0.1107265 0.83771,0.034506 0.14524,0.1452315 -0.11294,0.2485298 -0.57364,0.2295528 -0.50918,-0.02097 -0.61272,-0.1245365 -0.26407,-0.2640574 z m -4.80766,-0.4370599 c 0.31551,-0.1262539 0.69248,-0.1107265 0.83771,0.034506 0.14524,0.1452315 -0.11294,0.2485302 -0.57364,0.2295526 -0.50917,-0.02097 -0.61271,-0.1245363 -0.26407,-0.2640572 z"
           id="path899" />
        <path
           style="fill:#000000;stroke-width:0.43706"
           d="m 567.74656,179.57121 c -0.69362,-0.42181 -1.47036,-1.15788 -1.72608,-1.63571 -0.31386,-0.58649 -0.46495,-9.46747 -0.46495,-27.33274 V 124.1388 l 1.20192,-1.3236 c 1.37748,-1.51695 3.34622,-1.92909 5.96608,-1.24895 1.77211,0.46006 2.30716,0.86704 3.19181,2.42783 0.7607,1.34214 0.81398,51.74794 0.0565,53.45925 -0.72347,1.6344 -1.91293,2.30465 -4.64739,2.61872 -1.78557,0.20509 -2.60588,0.0903 -3.57786,-0.50084 z m -360.38069,-5.38105 c -0.71085,-0.29889 -1.57758,-0.88699 -1.92607,-1.3069 -0.68626,-0.82689 -1.83798,-12.05531 -4.43212,-43.21017 -0.82586,-9.91829 -0.84399,-10.93134 -0.2129,-11.89451 1.55695,-2.3762 5.09364,-2.88118 7.97781,-1.13908 1.0454,0.63144 1.99331,1.44311 2.10646,1.8037 0.18238,0.58115 0.36492,2.55046 0.89128,9.61535 0.0806,1.08172 0.26322,3.24517 0.40584,4.80766 0.14261,1.56249 0.34356,3.82427 0.44656,5.02619 0.10299,1.20191 0.29884,3.36536 0.4352,4.80766 0.25623,2.71001 0.55317,6.10422 0.89856,10.2709 0.10959,1.32211 0.29081,3.38722 0.4027,4.58913 0.39042,4.19351 0.70629,8.32423 0.84593,11.06248 0.13398,2.62733 0.0702,2.83088 -1.34263,4.28572 -1.01653,1.04674 -1.73518,1.44744 -2.28372,1.27334 -0.44024,-0.13973 -1.27743,-0.0727 -1.86043,0.14896 -0.71142,0.27048 -1.48502,0.2243 -2.35247,-0.14043 z m 208.95781,-19.58022 c -0.45813,-1.49878 -0.65681,-3.5356 -0.30776,-3.15503 0.42044,0.4584 1.01579,3.70135 0.67951,3.70135 -0.11262,0 -0.27991,-0.24584 -0.37175,-0.54632 z m -0.44244,-4.80766 c -0.35217,-1.11625 -0.51623,-3.40272 -0.2205,-3.07315 0.36339,0.40497 0.89416,3.61947 0.59763,3.61947 -0.11262,0 -0.28233,-0.24584 -0.37713,-0.54632 z m -0.43168,-5.24472 c -0.45813,-1.49878 -0.65681,-3.5356 -0.30776,-3.15503 0.42044,0.45841 1.01579,3.70136 0.67951,3.70136 -0.11262,0 -0.27991,-0.24585 -0.37175,-0.54633 z m -0.43706,-4.80766 c -0.45813,-1.49878 -0.65681,-3.5356 -0.30776,-3.15502 0.42044,0.4584 1.01579,3.70135 0.67951,3.70135 -0.11262,0 -0.27991,-0.24585 -0.37175,-0.54633 z m -0.43706,-5.24472 c -0.45813,-1.49878 -0.65681,-3.5356 -0.30776,-3.15502 0.42044,0.4584 1.01579,3.70135 0.67951,3.70135 -0.11262,0 -0.27991,-0.24585 -0.37175,-0.54633 z m -0.43706,-4.80766 c -0.45813,-1.49878 -0.6568,-3.5356 -0.30776,-3.15502 0.42044,0.4584 1.01579,3.70135 0.67951,3.70135 -0.11262,0 -0.27991,-0.24585 -0.37175,-0.54633 z m -0.45284,-5.35398 c -0.12477,-0.60096 -0.33911,-1.63351 -0.47631,-2.29456 -0.15833,-0.76282 -0.0987,-1.04225 0.1633,-0.76486 0.22703,0.24038 0.51725,1.27294 0.64493,2.29457 0.25251,2.02033 0.0335,2.52497 -0.33192,0.76485 z M 413.313,119.9001 c -0.16026,-0.16026 -0.2854,-0.60278 -0.27809,-0.98339 0.0109,-0.56831 0.0962,-0.54943 0.47712,0.10563 0.47062,0.8093 0.33418,1.41098 -0.19903,0.87776 z M 606.31137,97.450738 c -1.17399,-0.471893 -1.30624,-1.987446 -0.21853,-2.504528 0.42067,-0.199981 4.99114,-0.256069 10.15657,-0.12464 8.83718,0.224849 9.40125,0.288861 9.55357,1.084188 0.33513,1.749992 -0.9163,1.997263 -9.95981,1.967954 -4.70163,-0.01525 -8.99094,-0.205576 -9.5318,-0.422974 z m -5.13545,-1.73462 c 0.14855,-0.240383 0.35686,-0.43706 0.46284,-0.43706 0.10603,0 0.19275,0.196677 0.19275,0.43706 0,0.240383 -0.20831,0.437059 -0.46285,0.437059 -0.25459,0 -0.3413,-0.196676 -0.19274,-0.437059 z m 0.0728,-2.878612 c 0.14278,-0.940785 0.42351,-1.890219 0.62386,-2.109855 0.20034,-0.219635 0.24746,0.370396 0.10472,1.31118 -0.14279,0.940785 -0.42352,1.890219 -0.62386,2.109854 -0.20035,0.219636 -0.24747,-0.370395 -0.10472,-1.311179 z M 392.82513,91.468752 c -2.263,-0.242721 -3.85149,-2.173744 -3.81416,-4.636633 0.0777,-5.124387 4.28079,-50.934514 4.7545,-51.819653 0.83811,-1.566011 2.25553,-2.417065 3.87639,-2.327472 1.51711,0.08386 3.22586,0.356063 3.46988,0.552751 0.0601,0.04844 0.30355,0.112657 0.54102,0.142705 0.23746,0.03005 0.92455,0.779857 1.52687,1.666243 0.92048,1.354606 1.05599,1.947041 0.84973,3.715009 -0.13496,1.156869 -0.31587,2.988445 -0.40202,4.070168 -0.0862,1.081723 -0.28855,3.343508 -0.44977,5.026189 -0.16122,1.68268 -0.35521,3.846127 -0.4311,4.807659 -0.22088,2.798647 -0.63538,7.668867 -0.87415,10.270907 -0.12131,1.322106 -0.3096,3.485553 -0.41842,4.807659 -0.10881,1.322106 -0.32693,3.780568 -0.48472,5.463249 -0.15778,1.68268 -0.33686,3.747788 -0.39794,4.589129 -0.0922,1.27024 -0.4164,4.806225 -0.86148,9.396788 -0.14797,1.526138 -1.06689,3.277949 -1.71947,3.277949 -0.34649,0 -0.69554,0.172756 -0.77567,0.383904 -0.19658,0.518026 -2.40354,0.826455 -4.38949,0.613449 z M 20.905971,91.126927 c -0.120225,-0.120226 -0.882638,-0.295907 -1.694251,-0.390408 -1.899516,-0.221165 -3.477563,-2.006332 -3.477563,-3.934002 0,-2.025331 7.777885,-50.975806 8.285393,-52.144498 0.576149,-1.32676 2.908854,-2.46492 4.336169,-2.11568 0.630204,0.1542 1.473602,0.331281 1.874218,0.393512 0.400615,0.06223 0.990646,0.316992 1.311179,0.566137 0.320534,0.249145 0.939438,0.580471 1.375345,0.73628 0.435906,0.15581 0.670145,0.481356 0.52053,0.723437 -0.149613,0.242081 -0.05213,0.440147 0.216623,0.440147 0.268756,0 0.375494,0.183087 0.237194,0.40686 -0.138299,0.223773 -0.04005,0.537512 0.218324,0.697198 0.268704,0.166067 0.353356,0.820402 0.197776,1.528752 -0.149601,0.681127 -0.372488,1.891635 -0.495305,2.690016 -0.122817,0.798381 -0.297124,1.844956 -0.387348,2.325722 -0.290264,1.546685 -0.660958,3.892591 -0.863291,5.463249 -0.187517,1.455649 -0.527472,3.555469 -0.884483,5.463248 -0.08997,0.480766 -0.271948,1.611659 -0.404402,2.513095 -0.411519,2.800658 -0.737427,4.880967 -0.907246,5.791043 -0.08971,0.480766 -0.27148,1.611659 -0.403934,2.513095 -0.411518,2.800658 -0.737427,4.880967 -0.907245,5.791043 -0.08971,0.480766 -0.265186,1.56249 -0.389945,2.40383 -0.483555,3.260952 -0.764509,5.060397 -0.921235,5.900309 -0.313539,1.680285 -0.747997,4.377797 -0.84471,5.244718 -0.328062,2.940732 -0.912397,4.708158 -1.874743,5.670503 -0.599652,0.599655 -1.249615,0.991802 -1.444361,0.871445 -0.194746,-0.120362 -0.47762,-0.01897 -0.628608,0.225352 -0.283806,0.459206 -1.658726,0.610953 -2.044081,0.225597 z M 237.85106,88.638802 c -0.62725,-0.627255 -0.69474,-1.946013 -0.11782,-2.302562 0.22533,-0.139265 1.84792,-0.360702 3.60574,-0.492073 1.75782,-0.131376 4.08109,-0.315186 5.16281,-0.408467 1.08173,-0.09328 3.21143,-0.26457 4.73268,-0.380645 1.52126,-0.116074 3.34857,-0.339014 4.06071,-0.495429 0.77851,-0.170986 1.54907,-0.07336 1.93248,0.24485 0.70073,0.581552 0.85575,1.98409 0.25999,2.352287 -0.20773,0.128386 -3.69875,0.531897 -7.75781,0.896689 -4.05906,0.364792 -8.27362,0.764422 -9.36568,0.888067 -1.25033,0.141559 -2.18091,0.02946 -2.5131,-0.302717 z m 363.84631,-1.117558 c 0.13641,-0.901436 0.44799,-1.835651 0.69244,-2.076034 0.29973,-0.294749 0.35235,-0.17638 0.16162,0.363542 -0.15559,0.440329 -0.28286,1.374545 -0.28286,2.076035 0,0.701485 -0.18431,1.275432 -0.40957,1.275432 -0.22601,0 -0.29847,-0.734597 -0.16163,-1.638975 z M 230.20572,86.96811 c 0.33812,-1.292967 0.90803,-1.462734 0.66636,-0.198495 -0.11349,0.593685 -0.36168,1.079424 -0.55154,1.079424 -0.18985,0 -0.24152,-0.396417 -0.11482,-0.880929 z m 0.45747,-2.847305 c 0.11349,-0.593685 0.36169,-1.079424 0.55154,-1.079424 0.40522,0 0.0332,1.669931 -0.43671,1.960353 -0.17665,0.109173 -0.22831,-0.287249 -0.11483,-0.880929 z m 371.45962,-1.335677 c 0.14278,-0.940785 0.42351,-1.890219 0.62386,-2.109854 0.20034,-0.219636 0.24746,0.370395 0.10472,1.311179 -0.14279,0.940785 -0.42352,1.890219 -0.62386,2.109855 -0.20035,0.219635 -0.24747,-0.370396 -0.10472,-1.31118 z M 230.91189,81.984683 c 0.16105,-0.419669 0.29281,-0.943625 0.29281,-1.164349 0,-0.22072 0.17826,-0.401313 0.39614,-0.401313 0.50863,0 0.081,1.671898 -0.52318,2.045279 -0.28836,0.17822 -0.34989,2.01e-4 -0.16577,-0.479617 z m 0.6229,-3.532431 c 0.11488,-0.600958 0.35534,-1.09265 0.53437,-1.09265 0.17903,0 0.23151,0.491692 0.11663,1.09265 -0.11488,0.600957 -0.35535,1.092649 -0.53438,1.092649 -0.17902,0 -0.23151,-0.491692 -0.11662,-1.092649 z m 371.04164,-0.983385 c 0.2583,-1.673739 0.44502,-2.14426 0.72277,-1.821085 0.29838,0.347214 -0.25393,3.460059 -0.6139,3.460059 -0.19899,0 -0.24798,-0.737538 -0.10887,-1.638974 z M 231.97185,75.829892 c 0.11488,-0.600957 0.35534,-1.09265 0.53437,-1.09265 0.17903,0 0.23151,0.491693 0.11663,1.09265 -0.11488,0.600958 -0.35535,1.09265 -0.53438,1.09265 -0.17902,0 -0.23151,-0.491692 -0.11662,-1.09265 z m 0.25122,-2.149347 c 0.16105,-0.419669 0.29281,-0.943625 0.29281,-1.164349 0,-0.22072 0.17826,-0.401313 0.39614,-0.401313 0.50863,0 0.081,1.671898 -0.52318,2.045279 -0.28836,0.17822 -0.34989,2.01e-4 -0.16577,-0.479617 z M 602.99693,72.73275 c 0.14278,-0.940784 0.42351,-1.890218 0.62386,-2.109854 0.20034,-0.219636 0.24746,0.370395 0.10472,1.31118 -0.14279,0.940784 -0.42352,1.890218 -0.62386,2.109854 -0.20035,0.219636 -0.24747,-0.370395 -0.10472,-1.31118 z M 232.7367,70.749171 c 0.45387,-1.49825 1.02064,-1.963102 0.76537,-0.627736 -0.11905,0.622736 -0.41071,1.252308 -0.64815,1.399051 -0.26876,0.166105 -0.313,-0.125012 -0.11722,-0.771315 z m 370.56018,-1.838719 c 0.15559,-0.440329 0.28287,-1.374545 0.28287,-2.076035 0,-0.701485 0.1843,-1.275432 0.40956,-1.275432 0.51543,0 0.0689,3.125323 -0.5308,3.715009 -0.29974,0.294749 -0.35236,0.17638 -0.16163,-0.363542 z M 233.28303,67.525754 c 0.11488,-0.600957 0.35534,-1.09265 0.53437,-1.09265 0.17903,0 0.23151,0.491693 0.11663,1.09265 -0.11488,0.600958 -0.35535,1.09265 -0.53438,1.09265 -0.17902,0 -0.23151,-0.491692 -0.11662,-1.09265 z m 370.58802,-4.845381 c 0.14278,-0.940785 0.42351,-1.890219 0.62386,-2.109855 0.20034,-0.219635 0.24746,0.370396 0.10472,1.31118 -0.14279,0.940785 -0.42352,1.890219 -0.62386,2.109854 -0.20035,0.219636 -0.24747,-0.370395 -0.10472,-1.311179 z m 0.43706,-4.807659 c 0.14278,-0.940785 0.42351,-1.890219 0.62386,-2.109854 0.20034,-0.219636 0.24746,0.370395 0.10472,1.311179 -0.14279,0.940785 -0.42352,1.890219 -0.62386,2.109854 -0.20035,0.219636 -0.24747,-0.370395 -0.10472,-1.311179 z m 0.45362,-5.316261 c 0.35022,-2.269447 0.56626,-2.338926 0.56626,-0.18211 0,1.001597 -0.18431,1.821084 -0.40957,1.821084 -0.22688,0 -0.29677,-0.731083 -0.15669,-1.638974 z M 76.751555,16.376701 c -4.99473,-0.830935 -8.83629,-1.677076 -9.028885,-1.988699 -0.184369,-0.298321 -0.107425,-0.913809 0.170991,-1.367751 0.506067,-0.825105 1.623726,-0.855293 5.532405,-0.149431 1.771041,0.31983 4.043657,0.684475 5.681779,0.91165 0.84134,0.116677 2.021402,0.2987 2.62236,0.404495 0.600957,0.105795 1.726251,0.285485 2.500651,0.399312 3.066688,0.450761 4.205408,1.443408 3.135153,2.732985 -0.622946,0.750604 -0.223875,0.786041 -10.614454,-0.942561 z M 444.79636,13.138884 c -9.01678,-0.8304 -10.06509,-1.189242 -8.79046,-3.009031 0.42686,-0.6094266 0.97268,-0.8975999 1.427,-0.753406 0.40463,0.1284305 2.01052,0.3418665 3.5686,0.4743018 1.55807,0.1324357 3.81623,0.3254042 5.01815,0.4288182 1.20191,0.103414 3.32489,0.277564 4.71775,0.386999 4.49376,0.353078 5.18467,0.619331 5.03196,1.939156 -0.17198,1.486497 -0.46617,1.500791 -10.973,0.533162 z"
           id="path897" />
      </g>
    </g>
  </g>
</svg>
